G04 #@! TF.FileFunction,Soldermask,Top*
%FSLAX46Y46*%
G04 Gerber Fmt 4.6, Leading zero omitted, Abs format (unit mm)*
G04 Created by KiCad (PCBNEW 4.0.4+e1-6308~48~ubuntu14.04.1-stable) date Mon Nov 27 13:47:36 2017*
%MOMM*%
%LPD*%
G01*
G04 APERTURE LIST*
%ADD10C,0.100000*%
%ADD11R,1.400000X1.650000*%
%ADD12R,1.700000X1.100000*%
%ADD13R,1.100000X1.700000*%
%ADD14C,5.900000*%
%ADD15R,1.400000X1.700000*%
%ADD16R,3.200000X1.400000*%
%ADD17R,2.100000X2.100000*%
%ADD18O,2.100000X2.100000*%
%ADD19O,2.432000X2.432000*%
G04 APERTURE END LIST*
D10*
G36*
X176381281Y-121435445D02*
X175214555Y-120268719D01*
X176204505Y-119278769D01*
X177371231Y-120445495D01*
X176381281Y-121435445D01*
X176381281Y-121435445D01*
G37*
G36*
X177795495Y-120021231D02*
X176628769Y-118854505D01*
X177618719Y-117864555D01*
X178785445Y-119031281D01*
X177795495Y-120021231D01*
X177795495Y-120021231D01*
G37*
D11*
X106700000Y-128650000D03*
X104700000Y-128650000D03*
X242100000Y-120400000D03*
X240100000Y-120400000D03*
D12*
X171550000Y-122800000D03*
X171550000Y-124700000D03*
X173600000Y-122800000D03*
X173600000Y-124700000D03*
D13*
X108200000Y-128650000D03*
X110100000Y-128650000D03*
X243450000Y-122200000D03*
X245350000Y-122200000D03*
D11*
X242100000Y-122200000D03*
X240100000Y-122200000D03*
D12*
X169550000Y-124700000D03*
X169550000Y-122800000D03*
D14*
X140900000Y-126800000D03*
X220600000Y-126800000D03*
D15*
X143700000Y-120500000D03*
X142200000Y-120500000D03*
X147850000Y-122700000D03*
X149350000Y-122700000D03*
X152350000Y-122700000D03*
X150850000Y-122700000D03*
X158250000Y-122700000D03*
X159750000Y-122700000D03*
X161250000Y-122700000D03*
X162750000Y-122700000D03*
X165750000Y-122700000D03*
X164250000Y-122700000D03*
X190350000Y-124700000D03*
X188850000Y-124700000D03*
X203750000Y-124700000D03*
X202250000Y-124700000D03*
X216350000Y-120500000D03*
X217850000Y-120500000D03*
X219350000Y-120500000D03*
X220850000Y-120500000D03*
X223850000Y-120500000D03*
X222350000Y-120500000D03*
X170050000Y-126450000D03*
X171550000Y-126450000D03*
X173050000Y-126450000D03*
X176050000Y-126450000D03*
X174550000Y-126450000D03*
D16*
X211875000Y-129085000D03*
X206075000Y-129085000D03*
X211875000Y-125085000D03*
X206075000Y-125085000D03*
X132500000Y-129085000D03*
X126700000Y-129085000D03*
X132500000Y-125085000D03*
X126700000Y-125085000D03*
D17*
X122300000Y-124250000D03*
D18*
X119760000Y-124250000D03*
D17*
X195300000Y-128400000D03*
D18*
X192760000Y-128400000D03*
D17*
X183950000Y-105000000D03*
D18*
X183950000Y-102460000D03*
X181410000Y-105000000D03*
X181410000Y-102460000D03*
X178870000Y-105000000D03*
X178870000Y-102460000D03*
D19*
X125920000Y-112880000D03*
X123380000Y-112880000D03*
X120840000Y-112880000D03*
X118300000Y-112880000D03*
X115760000Y-112880000D03*
X113220000Y-112880000D03*
X110680000Y-112880000D03*
X125920000Y-102720000D03*
X123380000Y-102720000D03*
X120840000Y-102720000D03*
X110680000Y-102720000D03*
X113220000Y-102720000D03*
X115760000Y-102720000D03*
X118300000Y-102720000D03*
X163220000Y-112880000D03*
X160680000Y-112880000D03*
X158140000Y-112880000D03*
X155600000Y-112880000D03*
X153060000Y-112880000D03*
X150520000Y-112880000D03*
X147980000Y-112880000D03*
X163220000Y-102720000D03*
X160680000Y-102720000D03*
X158140000Y-102720000D03*
X147980000Y-102720000D03*
X150520000Y-102720000D03*
X153060000Y-102720000D03*
X155600000Y-102720000D03*
X203670000Y-112880000D03*
X201130000Y-112880000D03*
X198590000Y-112880000D03*
X196050000Y-112880000D03*
X193510000Y-112880000D03*
X190970000Y-112880000D03*
X188430000Y-112880000D03*
X203670000Y-102720000D03*
X201130000Y-102720000D03*
X198590000Y-102720000D03*
X188430000Y-102720000D03*
X190970000Y-102720000D03*
X193510000Y-102720000D03*
X196050000Y-102720000D03*
X241270000Y-112880000D03*
X238730000Y-112880000D03*
X236190000Y-112880000D03*
X233650000Y-112880000D03*
X231110000Y-112880000D03*
X228570000Y-112880000D03*
X226030000Y-112880000D03*
X241270000Y-102720000D03*
X238730000Y-102720000D03*
X236190000Y-102720000D03*
X226030000Y-102720000D03*
X228570000Y-102720000D03*
X231110000Y-102720000D03*
X233650000Y-102720000D03*
D15*
X197050000Y-124700000D03*
X195550000Y-124700000D03*
M02*
