M48
;DRILL file {KiCad 4.0.4+e1-6308~48~ubuntu14.04.1-stable} date Mon Nov 27 13:47:43 2017
;FORMAT={-:-/ absolute / inch / decimal}
FMAT,2
INCH,TZ
T1C0.016
T2C0.031
T3C0.039
T4C0.040
T5C0.118
%
G90
G05
M72
T1
X3.9789Y-4.9798
X3.9803Y-4.2441
X4.0289Y-4.9798
X4.0295Y-4.5846
X4.0295Y-4.7598
X4.0394Y-4.0453
X4.0787Y-3.9646
X4.0787Y-4.5846
X4.0789Y-4.9798
X4.0807Y-4.7894
X4.1102Y-4.2028
X4.1102Y-4.9094
X4.122Y-5.065
X4.1289Y-4.9798
X4.1358Y-4.815
X4.1752Y-4.8406
X4.1789Y-4.9798
X4.2008Y-4.1535
X4.2008Y-5.065
X4.2028Y-4.8819
X4.2289Y-4.6108
X4.2289Y-4.9798
X4.2303Y-3.9823
X4.2618Y-4.1772
X4.2618Y-4.5059
X4.2835Y-4.8602
X4.2913Y-4.1201
X4.3289Y-4.9798
X4.3307Y-4.6929
X4.3327Y-5.063
X4.3583Y-4.8071
X4.4252Y-5.0482
X4.4567Y-4.7539
X4.4843Y-4.5079
X4.4843Y-4.6024
X4.5207Y-4.5719
X4.5226Y-4.5039
X4.5591Y-4.7815
X4.6024Y-4.8327
X4.6821Y-4.563
X4.7087Y-4.7264
X4.7559Y-4.6929
X4.8563Y-4.6673
X5.1201Y-4.3661
X5.122Y-4.5295
X5.1581Y-4.4365
X5.1594Y-4.6732
X5.2081Y-4.0675
X5.2323Y-4.9252
X5.2943Y-4.6161
X5.3081Y-4.0675
X5.3366Y-4.6575
X5.3366Y-4.9803
X5.376Y-4.6014
X5.3829Y-5.0522
X5.3967Y-4.7106
X5.4081Y-4.4365
X5.4094Y-4.2165
X5.4577Y-4.1703
X5.4581Y-4.0675
X5.5295Y-4.8268
X5.5315Y-4.7205
X5.5571Y-4.0689
X5.5581Y-4.4365
X5.5591Y-4.2441
X5.6081Y-4.4365
X5.6102Y-4.2185
X5.6575Y-4.1929
X5.6581Y-4.4365
X5.7077Y-4.2697
X5.7081Y-4.0675
X5.7087Y-4.4567
X5.7087Y-4.5276
X5.7618Y-4.6378
X5.7618Y-4.7972
X5.8268Y-4.3504
X5.8819Y-4.6122
X5.9242Y-4.1929
X5.9262Y-4.2963
X5.9429Y-4.7126
X5.9911Y-4.5797
X6.0256Y-4.2185
X6.0256Y-4.3228
X6.3012Y-4.1673
X6.3268Y-4.2441
X6.4941Y-4.5827
X6.501Y-4.499
X6.5285Y-3.9921
X6.5413Y-4.5531
X6.6004Y-4.6319
X6.6142Y-4.5433
X6.6814Y-4.5032
X6.7224Y-4.5433
X6.7264Y-4.6063
X6.7362Y-4.2205
X6.8031Y-4.5728
X6.8071Y-4.4075
X6.815Y-4.3696
X6.8386Y-4.5709
X6.8415Y-3.9921
X6.8494Y-4.6604
X6.8595Y-4.3251
X6.8711Y-4.4961
X6.8967Y-4.7441
X6.9075Y-4.4902
X6.9252Y-4.8878
X6.9291Y-4.4134
X6.935Y-4.4469
X6.939Y-4.2441
X6.9606Y-4.4154
X6.9636Y-4.0866
X6.9963Y-4.6828
X7.0177Y-4.3504
X7.0344Y-4.2884
X7.0354Y-4.4902
X7.0374Y-4.4213
X7.0827Y-4.6299
X7.1063Y-4.6004
X7.1324Y-4.687
X7.1654Y-4.4705
X7.1654Y-4.5138
X7.1673Y-4.2165
X7.1757Y-4.4154
X7.1801Y-5.0138
X7.1919Y-4.7028
X7.2126Y-4.5138
X7.2736Y-4.2421
X7.2815Y-4.5689
X7.313Y-5.0108
X7.313Y-5.0866
X7.315Y-4.5394
X7.3504Y-4.7126
X7.6535Y-4.2047
X7.7244Y-4.1772
X7.7559Y-4.7185
X7.7953Y-3.9508
X7.8307Y-3.9724
X7.9291Y-4.2323
X8.0236Y-4.7539
X8.0394Y-4.1417
X8.0945Y-4.9213
X8.1122Y-4.0906
X8.1575Y-4.3031
X8.1614Y-4.4134
X8.2087Y-4.3307
X8.2087Y-4.4094
X8.2126Y-4.0669
X8.248Y-4.5276
X8.2598Y-4.2756
X8.2608Y-4.0675
X8.2638Y-4.4094
X8.3022Y-4.001
X8.3041Y-4.1476
X8.313Y-4.4665
X8.3258Y-4.7037
X8.3268Y-4.6024
X8.4094Y-4.0945
X8.4094Y-4.2323
X8.438Y-4.8799
X8.4606Y-4.4252
X8.5079Y-4.1496
X8.5108Y-4.0675
X8.5118Y-4.4134
X8.5551Y-4.1772
X8.5591Y-4.4134
X8.6063Y-4.2047
X8.6102Y-4.4134
X8.6181Y-4.6417
X8.6457Y-4.6713
X8.6594Y-4.0886
X8.6634Y-4.4685
X8.6713Y-4.3543
X8.6949Y-4.3819
X8.7175Y-4.0817
X8.7992Y-4.5512
X8.8071Y-4.6722
X8.8317Y-4.1309
X8.8484Y-4.5768
X8.9803Y-4.7224
X9.0591Y-4.5177
X9.0906Y-4.7795
X9.0915Y-4.6358
X9.3524Y-4.8543
X9.3858Y-4.8484
X9.4094Y-4.752
X9.4094Y-4.7933
X9.4116Y-4.8971
X9.4528Y-4.7264
X9.4616Y-4.5517
X9.5315Y-4.6949
X9.563Y-4.1024
X9.563Y-4.5315
X9.563Y-4.8957
X9.6102Y-4.5295
X9.6122Y-4.3858
X9.6122Y-4.8976
X9.6417Y-4.6476
X9.6949Y-4.1299
X9.7116Y-4.8971
X9.7616Y-4.8971
X9.811Y-4.5315
X9.8116Y-4.8971
X9.8616Y-4.8971
T2
X5.5984Y-4.7441
X5.6575Y-4.7441
X5.8209Y-4.8307
X5.8799Y-4.8307
X5.939Y-4.8307
X5.998Y-4.8307
X6.2303Y-4.8307
X6.2894Y-4.8307
X6.3484Y-4.8307
X6.4075Y-4.8307
X6.4665Y-4.8307
X6.5256Y-4.8307
X6.6949Y-4.9783
X6.7539Y-4.9783
X6.813Y-4.9783
X6.872Y-4.9783
X6.9311Y-4.9783
X7.435Y-4.9094
X7.4941Y-4.9094
X7.6988Y-4.9094
X7.7579Y-4.9094
X7.9626Y-4.9094
X8.0217Y-4.9094
X8.5177Y-4.7441
X8.5768Y-4.7441
X8.6358Y-4.7441
X8.6949Y-4.7441
X8.7539Y-4.7441
X8.813Y-4.7441
T3
X4.715Y-4.8917
X4.815Y-4.8917
X7.0421Y-4.0339
X7.0421Y-4.1339
X7.1421Y-4.0339
X7.1421Y-4.1339
X7.2421Y-4.0339
X7.2421Y-4.1339
X7.589Y-5.0551
X7.689Y-5.0551
T4
X4.3575Y-4.0441
X4.3575Y-4.4441
X4.4575Y-4.0441
X4.4575Y-4.4441
X4.5575Y-4.0441
X4.5575Y-4.4441
X4.6575Y-4.0441
X4.6575Y-4.4441
X4.7575Y-4.0441
X4.7575Y-4.4441
X4.8575Y-4.0441
X4.8575Y-4.4441
X4.9575Y-4.0441
X4.9575Y-4.4441
X5.826Y-4.0441
X5.826Y-4.4441
X5.926Y-4.0441
X5.926Y-4.4441
X6.026Y-4.0441
X6.026Y-4.4441
X6.126Y-4.0441
X6.126Y-4.4441
X6.226Y-4.0441
X6.226Y-4.4441
X6.326Y-4.0441
X6.326Y-4.4441
X6.426Y-4.0441
X6.426Y-4.4441
X7.4185Y-4.0441
X7.4185Y-4.4441
X7.5185Y-4.0441
X7.5185Y-4.4441
X7.6185Y-4.0441
X7.6185Y-4.4441
X7.7185Y-4.0441
X7.7185Y-4.4441
X7.8185Y-4.0441
X7.8185Y-4.4441
X7.9185Y-4.0441
X7.9185Y-4.4441
X8.0185Y-4.0441
X8.0185Y-4.4441
X8.8988Y-4.0441
X8.8988Y-4.4441
X8.9988Y-4.0441
X8.9988Y-4.4441
X9.0988Y-4.0441
X9.0988Y-4.4441
X9.1988Y-4.0441
X9.1988Y-4.4441
X9.2988Y-4.0441
X9.2988Y-4.4441
X9.3988Y-4.0441
X9.3988Y-4.4441
X9.4988Y-4.0441
X9.4988Y-4.4441
T5
X5.5472Y-4.9921
X8.685Y-4.9921
T0
M30
