G04 #@! TF.FileFunction,Copper,L2,Bot,Signal*
%FSLAX46Y46*%
G04 Gerber Fmt 4.6, Leading zero omitted, Abs format (unit mm)*
G04 Created by KiCad (PCBNEW 4.0.4+e1-6308~48~ubuntu14.04.1-stable) date Mon Nov 27 13:47:36 2017*
%MOMM*%
%LPD*%
G01*
G04 APERTURE LIST*
%ADD10C,0.100000*%
%ADD11R,1.250000X1.000000*%
%ADD12R,1.000000X1.250000*%
%ADD13R,0.700000X1.300000*%
%ADD14C,5.500000*%
%ADD15R,1.550000X1.300000*%
%ADD16R,1.000000X1.300000*%
%ADD17R,4.100000X0.700000*%
%ADD18R,4.100000X1.000000*%
%ADD19R,1.700000X1.700000*%
%ADD20O,1.700000X1.700000*%
%ADD21R,0.533000X1.981000*%
%ADD22O,2.032000X2.032000*%
%ADD23R,1.300000X0.700000*%
%ADD24C,0.600000*%
%ADD25C,0.500000*%
%ADD26C,0.250000*%
%ADD27C,0.254000*%
G04 APERTURE END LIST*
D10*
D11*
X185750000Y-127200000D03*
X185750000Y-129200000D03*
D12*
X136500000Y-115000000D03*
X134500000Y-115000000D03*
X211500000Y-115000000D03*
X209500000Y-115000000D03*
D13*
X164100000Y-105950000D03*
X162200000Y-105950000D03*
X138050000Y-115000000D03*
X139950000Y-115000000D03*
X213050000Y-115000000D03*
X214950000Y-115000000D03*
D10*
G36*
X177537958Y-108566280D02*
X177926866Y-108955188D01*
X176866206Y-110015848D01*
X176477298Y-109626940D01*
X177537958Y-108566280D01*
X177537958Y-108566280D01*
G37*
G36*
X178103643Y-109131966D02*
X178492551Y-109520874D01*
X177431891Y-110581534D01*
X177042983Y-110192626D01*
X178103643Y-109131966D01*
X178103643Y-109131966D01*
G37*
G36*
X178669328Y-109697651D02*
X179058236Y-110086559D01*
X177997576Y-111147219D01*
X177608668Y-110758311D01*
X178669328Y-109697651D01*
X178669328Y-109697651D01*
G37*
G36*
X179235014Y-110263336D02*
X179623922Y-110652244D01*
X178563262Y-111712904D01*
X178174354Y-111323996D01*
X179235014Y-110263336D01*
X179235014Y-110263336D01*
G37*
G36*
X179800699Y-110829022D02*
X180189607Y-111217930D01*
X179128947Y-112278590D01*
X178740039Y-111889682D01*
X179800699Y-110829022D01*
X179800699Y-110829022D01*
G37*
G36*
X180366385Y-111394707D02*
X180755293Y-111783615D01*
X179694633Y-112844275D01*
X179305725Y-112455367D01*
X180366385Y-111394707D01*
X180366385Y-111394707D01*
G37*
G36*
X180932070Y-111960393D02*
X181320978Y-112349301D01*
X180260318Y-113409961D01*
X179871410Y-113021053D01*
X180932070Y-111960393D01*
X180932070Y-111960393D01*
G37*
G36*
X181497756Y-112526078D02*
X181886664Y-112914986D01*
X180826004Y-113975646D01*
X180437096Y-113586738D01*
X181497756Y-112526078D01*
X181497756Y-112526078D01*
G37*
G36*
X182063441Y-113091764D02*
X182452349Y-113480672D01*
X181391689Y-114541332D01*
X181002781Y-114152424D01*
X182063441Y-113091764D01*
X182063441Y-113091764D01*
G37*
G36*
X182629126Y-113657449D02*
X183018034Y-114046357D01*
X181957374Y-115107017D01*
X181568466Y-114718109D01*
X182629126Y-113657449D01*
X182629126Y-113657449D01*
G37*
G36*
X183194812Y-114223134D02*
X183583720Y-114612042D01*
X182523060Y-115672702D01*
X182134152Y-115283794D01*
X183194812Y-114223134D01*
X183194812Y-114223134D01*
G37*
G36*
X183583720Y-117687958D02*
X183194812Y-118076866D01*
X182134152Y-117016206D01*
X182523060Y-116627298D01*
X183583720Y-117687958D01*
X183583720Y-117687958D01*
G37*
G36*
X183018034Y-118253643D02*
X182629126Y-118642551D01*
X181568466Y-117581891D01*
X181957374Y-117192983D01*
X183018034Y-118253643D01*
X183018034Y-118253643D01*
G37*
G36*
X182452349Y-118819328D02*
X182063441Y-119208236D01*
X181002781Y-118147576D01*
X181391689Y-117758668D01*
X182452349Y-118819328D01*
X182452349Y-118819328D01*
G37*
G36*
X181886664Y-119385014D02*
X181497756Y-119773922D01*
X180437096Y-118713262D01*
X180826004Y-118324354D01*
X181886664Y-119385014D01*
X181886664Y-119385014D01*
G37*
G36*
X181320978Y-119950699D02*
X180932070Y-120339607D01*
X179871410Y-119278947D01*
X180260318Y-118890039D01*
X181320978Y-119950699D01*
X181320978Y-119950699D01*
G37*
G36*
X180755293Y-120516385D02*
X180366385Y-120905293D01*
X179305725Y-119844633D01*
X179694633Y-119455725D01*
X180755293Y-120516385D01*
X180755293Y-120516385D01*
G37*
G36*
X180189607Y-121082070D02*
X179800699Y-121470978D01*
X178740039Y-120410318D01*
X179128947Y-120021410D01*
X180189607Y-121082070D01*
X180189607Y-121082070D01*
G37*
G36*
X179623922Y-121647756D02*
X179235014Y-122036664D01*
X178174354Y-120976004D01*
X178563262Y-120587096D01*
X179623922Y-121647756D01*
X179623922Y-121647756D01*
G37*
G36*
X179058236Y-122213441D02*
X178669328Y-122602349D01*
X177608668Y-121541689D01*
X177997576Y-121152781D01*
X179058236Y-122213441D01*
X179058236Y-122213441D01*
G37*
G36*
X178492551Y-122779126D02*
X178103643Y-123168034D01*
X177042983Y-122107374D01*
X177431891Y-121718466D01*
X178492551Y-122779126D01*
X178492551Y-122779126D01*
G37*
G36*
X177926866Y-123344812D02*
X177537958Y-123733720D01*
X176477298Y-122673060D01*
X176866206Y-122284152D01*
X177926866Y-123344812D01*
X177926866Y-123344812D01*
G37*
G36*
X175133794Y-122284152D02*
X175522702Y-122673060D01*
X174462042Y-123733720D01*
X174073134Y-123344812D01*
X175133794Y-122284152D01*
X175133794Y-122284152D01*
G37*
G36*
X174568109Y-121718466D02*
X174957017Y-122107374D01*
X173896357Y-123168034D01*
X173507449Y-122779126D01*
X174568109Y-121718466D01*
X174568109Y-121718466D01*
G37*
G36*
X174002424Y-121152781D02*
X174391332Y-121541689D01*
X173330672Y-122602349D01*
X172941764Y-122213441D01*
X174002424Y-121152781D01*
X174002424Y-121152781D01*
G37*
G36*
X173436738Y-120587096D02*
X173825646Y-120976004D01*
X172764986Y-122036664D01*
X172376078Y-121647756D01*
X173436738Y-120587096D01*
X173436738Y-120587096D01*
G37*
G36*
X172871053Y-120021410D02*
X173259961Y-120410318D01*
X172199301Y-121470978D01*
X171810393Y-121082070D01*
X172871053Y-120021410D01*
X172871053Y-120021410D01*
G37*
G36*
X172305367Y-119455725D02*
X172694275Y-119844633D01*
X171633615Y-120905293D01*
X171244707Y-120516385D01*
X172305367Y-119455725D01*
X172305367Y-119455725D01*
G37*
G36*
X171739682Y-118890039D02*
X172128590Y-119278947D01*
X171067930Y-120339607D01*
X170679022Y-119950699D01*
X171739682Y-118890039D01*
X171739682Y-118890039D01*
G37*
G36*
X171173996Y-118324354D02*
X171562904Y-118713262D01*
X170502244Y-119773922D01*
X170113336Y-119385014D01*
X171173996Y-118324354D01*
X171173996Y-118324354D01*
G37*
G36*
X170608311Y-117758668D02*
X170997219Y-118147576D01*
X169936559Y-119208236D01*
X169547651Y-118819328D01*
X170608311Y-117758668D01*
X170608311Y-117758668D01*
G37*
G36*
X170042626Y-117192983D02*
X170431534Y-117581891D01*
X169370874Y-118642551D01*
X168981966Y-118253643D01*
X170042626Y-117192983D01*
X170042626Y-117192983D01*
G37*
G36*
X169476940Y-116627298D02*
X169865848Y-117016206D01*
X168805188Y-118076866D01*
X168416280Y-117687958D01*
X169476940Y-116627298D01*
X169476940Y-116627298D01*
G37*
G36*
X169865848Y-115283794D02*
X169476940Y-115672702D01*
X168416280Y-114612042D01*
X168805188Y-114223134D01*
X169865848Y-115283794D01*
X169865848Y-115283794D01*
G37*
G36*
X170431534Y-114718109D02*
X170042626Y-115107017D01*
X168981966Y-114046357D01*
X169370874Y-113657449D01*
X170431534Y-114718109D01*
X170431534Y-114718109D01*
G37*
G36*
X170997219Y-114152424D02*
X170608311Y-114541332D01*
X169547651Y-113480672D01*
X169936559Y-113091764D01*
X170997219Y-114152424D01*
X170997219Y-114152424D01*
G37*
G36*
X171562904Y-113586738D02*
X171173996Y-113975646D01*
X170113336Y-112914986D01*
X170502244Y-112526078D01*
X171562904Y-113586738D01*
X171562904Y-113586738D01*
G37*
G36*
X172128590Y-113021053D02*
X171739682Y-113409961D01*
X170679022Y-112349301D01*
X171067930Y-111960393D01*
X172128590Y-113021053D01*
X172128590Y-113021053D01*
G37*
G36*
X172694275Y-112455367D02*
X172305367Y-112844275D01*
X171244707Y-111783615D01*
X171633615Y-111394707D01*
X172694275Y-112455367D01*
X172694275Y-112455367D01*
G37*
G36*
X173259961Y-111889682D02*
X172871053Y-112278590D01*
X171810393Y-111217930D01*
X172199301Y-110829022D01*
X173259961Y-111889682D01*
X173259961Y-111889682D01*
G37*
G36*
X173825646Y-111323996D02*
X173436738Y-111712904D01*
X172376078Y-110652244D01*
X172764986Y-110263336D01*
X173825646Y-111323996D01*
X173825646Y-111323996D01*
G37*
G36*
X174391332Y-110758311D02*
X174002424Y-111147219D01*
X172941764Y-110086559D01*
X173330672Y-109697651D01*
X174391332Y-110758311D01*
X174391332Y-110758311D01*
G37*
G36*
X174957017Y-110192626D02*
X174568109Y-110581534D01*
X173507449Y-109520874D01*
X173896357Y-109131966D01*
X174957017Y-110192626D01*
X174957017Y-110192626D01*
G37*
G36*
X175522702Y-109626940D02*
X175133794Y-110015848D01*
X174073134Y-108955188D01*
X174462042Y-108566280D01*
X175522702Y-109626940D01*
X175522702Y-109626940D01*
G37*
D12*
X106700000Y-128650000D03*
X104700000Y-128650000D03*
X136500000Y-116900000D03*
X134500000Y-116900000D03*
X211500000Y-116900000D03*
X209500000Y-116900000D03*
D13*
X190100000Y-127550000D03*
X188200000Y-127550000D03*
D10*
G36*
X181581281Y-111402602D02*
X180697398Y-110518719D01*
X181404505Y-109811612D01*
X182288388Y-110695495D01*
X181581281Y-111402602D01*
X181581281Y-111402602D01*
G37*
G36*
X182995495Y-109988388D02*
X182111612Y-109104505D01*
X182818719Y-108397398D01*
X183702602Y-109281281D01*
X182995495Y-109988388D01*
X182995495Y-109988388D01*
G37*
D14*
X140900000Y-126800000D03*
X220600000Y-126800000D03*
D15*
X173775000Y-101400000D03*
X165825000Y-101400000D03*
X173775000Y-105900000D03*
X165825000Y-105900000D03*
D16*
X143700000Y-120500000D03*
X142200000Y-120500000D03*
X147850000Y-122700000D03*
X149350000Y-122700000D03*
X152350000Y-122700000D03*
X150850000Y-122700000D03*
X158250000Y-122700000D03*
X159750000Y-122700000D03*
X161250000Y-122700000D03*
X162750000Y-122700000D03*
X165750000Y-122700000D03*
X164250000Y-122700000D03*
X190350000Y-124700000D03*
X188850000Y-124700000D03*
X203750000Y-124700000D03*
X202250000Y-124700000D03*
X216350000Y-120500000D03*
X217850000Y-120500000D03*
X219350000Y-120500000D03*
X220850000Y-120500000D03*
X223850000Y-120500000D03*
X222350000Y-120500000D03*
X170050000Y-126450000D03*
X171550000Y-126450000D03*
X173050000Y-126450000D03*
X176050000Y-126450000D03*
X174550000Y-126450000D03*
D17*
X186700000Y-121200000D03*
X186700000Y-118200000D03*
D18*
X186700000Y-119700000D03*
D19*
X122300000Y-124250000D03*
D20*
X119760000Y-124250000D03*
D19*
X195300000Y-128400000D03*
D20*
X192760000Y-128400000D03*
D19*
X183950000Y-105000000D03*
D20*
X183950000Y-102460000D03*
X181410000Y-105000000D03*
X181410000Y-102460000D03*
X178870000Y-105000000D03*
X178870000Y-102460000D03*
D21*
X236515000Y-115613500D03*
X237785000Y-115613500D03*
X239055000Y-115613500D03*
X240325000Y-115613500D03*
X241595000Y-115613500D03*
X242865000Y-115613500D03*
X250485000Y-115613500D03*
X249215000Y-115613500D03*
X247945000Y-115613500D03*
X246675000Y-115613500D03*
X245405000Y-115613500D03*
X244135000Y-115613500D03*
X250485000Y-124986500D03*
X249215000Y-124986500D03*
X247945000Y-124986500D03*
X246675000Y-124986500D03*
X245405000Y-124986500D03*
X236515000Y-124986500D03*
X237785000Y-124986500D03*
X239055000Y-124986500D03*
X240325000Y-124986500D03*
X241595000Y-124986500D03*
X242865000Y-124986500D03*
X244135000Y-124986500D03*
X206015000Y-103313500D03*
X207285000Y-103313500D03*
X208555000Y-103313500D03*
X209825000Y-103313500D03*
X211095000Y-103313500D03*
X212365000Y-103313500D03*
X219985000Y-103313500D03*
X218715000Y-103313500D03*
X217445000Y-103313500D03*
X216175000Y-103313500D03*
X214905000Y-103313500D03*
X213635000Y-103313500D03*
X219985000Y-112686500D03*
X218715000Y-112686500D03*
X217445000Y-112686500D03*
X216175000Y-112686500D03*
X214905000Y-112686500D03*
X206015000Y-112686500D03*
X207285000Y-112686500D03*
X208555000Y-112686500D03*
X209825000Y-112686500D03*
X211095000Y-112686500D03*
X212365000Y-112686500D03*
X213635000Y-112686500D03*
X131015000Y-103313500D03*
X132285000Y-103313500D03*
X133555000Y-103313500D03*
X134825000Y-103313500D03*
X136095000Y-103313500D03*
X137365000Y-103313500D03*
X144985000Y-103313500D03*
X143715000Y-103313500D03*
X142445000Y-103313500D03*
X141175000Y-103313500D03*
X139905000Y-103313500D03*
X138635000Y-103313500D03*
X144985000Y-112686500D03*
X143715000Y-112686500D03*
X142445000Y-112686500D03*
X141175000Y-112686500D03*
X139905000Y-112686500D03*
X131015000Y-112686500D03*
X132285000Y-112686500D03*
X133555000Y-112686500D03*
X134825000Y-112686500D03*
X136095000Y-112686500D03*
X137365000Y-112686500D03*
X138635000Y-112686500D03*
X101065000Y-117113500D03*
X102335000Y-117113500D03*
X103605000Y-117113500D03*
X104875000Y-117113500D03*
X106145000Y-117113500D03*
X107415000Y-117113500D03*
X115035000Y-117113500D03*
X113765000Y-117113500D03*
X112495000Y-117113500D03*
X111225000Y-117113500D03*
X109955000Y-117113500D03*
X108685000Y-117113500D03*
X115035000Y-126486500D03*
X113765000Y-126486500D03*
X112495000Y-126486500D03*
X111225000Y-126486500D03*
X109955000Y-126486500D03*
X101065000Y-126486500D03*
X102335000Y-126486500D03*
X103605000Y-126486500D03*
X104875000Y-126486500D03*
X106145000Y-126486500D03*
X107415000Y-126486500D03*
X108685000Y-126486500D03*
D22*
X125920000Y-112880000D03*
X123380000Y-112880000D03*
X120840000Y-112880000D03*
X118300000Y-112880000D03*
X115760000Y-112880000D03*
X113220000Y-112880000D03*
X110680000Y-112880000D03*
X125920000Y-102720000D03*
X123380000Y-102720000D03*
X120840000Y-102720000D03*
X110680000Y-102720000D03*
X113220000Y-102720000D03*
X115760000Y-102720000D03*
X118300000Y-102720000D03*
X163220000Y-112880000D03*
X160680000Y-112880000D03*
X158140000Y-112880000D03*
X155600000Y-112880000D03*
X153060000Y-112880000D03*
X150520000Y-112880000D03*
X147980000Y-112880000D03*
X163220000Y-102720000D03*
X160680000Y-102720000D03*
X158140000Y-102720000D03*
X147980000Y-102720000D03*
X150520000Y-102720000D03*
X153060000Y-102720000D03*
X155600000Y-102720000D03*
X203670000Y-112880000D03*
X201130000Y-112880000D03*
X198590000Y-112880000D03*
X196050000Y-112880000D03*
X193510000Y-112880000D03*
X190970000Y-112880000D03*
X188430000Y-112880000D03*
X203670000Y-102720000D03*
X201130000Y-102720000D03*
X198590000Y-102720000D03*
X188430000Y-102720000D03*
X190970000Y-102720000D03*
X193510000Y-102720000D03*
X196050000Y-102720000D03*
X241270000Y-112880000D03*
X238730000Y-112880000D03*
X236190000Y-112880000D03*
X233650000Y-112880000D03*
X231110000Y-112880000D03*
X228570000Y-112880000D03*
X226030000Y-112880000D03*
X241270000Y-102720000D03*
X238730000Y-102720000D03*
X236190000Y-102720000D03*
X226030000Y-102720000D03*
X228570000Y-102720000D03*
X231110000Y-102720000D03*
X233650000Y-102720000D03*
D16*
X197050000Y-124700000D03*
X195550000Y-124700000D03*
D23*
X197000000Y-117900000D03*
X197000000Y-119800000D03*
D24*
X173775000Y-101400000D03*
X165825000Y-101400000D03*
X240325000Y-115613500D03*
X177707107Y-118942893D03*
X178750000Y-112300000D03*
X174232233Y-109856750D03*
X175450000Y-114050000D03*
X178700000Y-114050000D03*
X175900000Y-124150000D03*
X186700000Y-119700000D03*
X216175000Y-103313500D03*
X224325000Y-104925000D03*
X221425000Y-103675000D03*
X169706750Y-114382233D03*
X104700000Y-128650000D03*
X118925000Y-115900000D03*
X209825000Y-103313500D03*
X141150000Y-103350000D03*
X134825000Y-103313500D03*
X228100000Y-119950000D03*
X223700000Y-118675000D03*
X240100000Y-120050000D03*
X185750000Y-129200000D03*
X209500000Y-115000000D03*
X181161880Y-119049138D03*
X134475000Y-117250000D03*
X211500000Y-116900000D03*
X185800000Y-115300000D03*
X185750000Y-127275000D03*
X211475000Y-119475000D03*
X242100000Y-119250000D03*
X230925000Y-117750000D03*
X230900000Y-121400000D03*
X152175000Y-116325000D03*
X175175000Y-120500000D03*
X137365000Y-112686500D03*
X137400000Y-107100000D03*
X214325000Y-123950000D03*
X176875000Y-103800000D03*
X178675000Y-108925000D03*
X174525000Y-114200000D03*
X173975000Y-118375000D03*
X182675000Y-119450000D03*
X182375000Y-127350000D03*
X165125000Y-114275000D03*
X164950000Y-116400000D03*
X137075000Y-119650000D03*
X107415000Y-126486500D03*
X136550000Y-116875000D03*
X136725000Y-128325000D03*
X112400000Y-128225000D03*
X242900000Y-124350000D03*
X106700000Y-128650000D03*
X176150000Y-112950000D03*
X183200000Y-114650000D03*
X170750000Y-115400000D03*
X168000000Y-115400000D03*
X219600000Y-118650000D03*
X182000000Y-113550000D03*
X220050000Y-113500000D03*
X135550000Y-118300000D03*
X135550000Y-126500000D03*
X145000000Y-115000000D03*
X145000000Y-113200000D03*
X250485000Y-124386500D03*
X146350000Y-117800000D03*
X146350000Y-121850000D03*
X167650000Y-117650000D03*
X182000000Y-114650000D03*
X180500000Y-116850000D03*
X170850000Y-117000000D03*
X179900000Y-117600000D03*
X119600000Y-120050000D03*
X140450000Y-122600000D03*
X140500000Y-119900000D03*
X132900000Y-125100000D03*
X172900000Y-111950000D03*
X172800000Y-116150000D03*
X149400000Y-117150000D03*
X150950000Y-119700000D03*
X205600000Y-125000000D03*
X203800000Y-120750000D03*
X173100862Y-110988120D03*
X173700000Y-116100000D03*
X176800000Y-112150000D03*
X178250000Y-110500000D03*
X110050000Y-128600000D03*
X244150000Y-124400000D03*
X182050000Y-107100000D03*
X114825000Y-116125000D03*
X114875000Y-114400000D03*
X144985000Y-103313500D03*
X144975000Y-108450000D03*
X182262742Y-112150000D03*
X218900000Y-117900000D03*
X130100000Y-115050000D03*
X130050000Y-110900000D03*
X220250000Y-110600000D03*
X219950000Y-103850000D03*
X102350000Y-116450000D03*
X102600000Y-102750000D03*
X103600000Y-100700000D03*
X103600000Y-116450000D03*
X107415000Y-117113500D03*
X107450000Y-101150000D03*
X113900000Y-114500000D03*
X113900000Y-116900000D03*
X108250000Y-106100000D03*
X108250000Y-114450000D03*
X123350000Y-118550000D03*
X109000000Y-104650000D03*
X108800000Y-123450000D03*
X106750000Y-124000000D03*
X106700000Y-105500000D03*
X104400000Y-106750000D03*
X104400000Y-124700000D03*
X110000000Y-119200000D03*
X120800000Y-119200000D03*
X109955000Y-126486500D03*
X101065000Y-126486500D03*
X101100000Y-107800000D03*
X113200000Y-120750000D03*
X102335000Y-126486500D03*
X102350000Y-120900000D03*
X115800000Y-121450000D03*
X103605000Y-126486500D03*
X103650000Y-121650000D03*
X105050000Y-122300000D03*
X110700000Y-122100000D03*
X104875000Y-126486500D03*
X116900000Y-122750000D03*
X106050000Y-122950000D03*
X106145000Y-126486500D03*
X132285000Y-103313500D03*
X160050000Y-105850000D03*
X138625000Y-105925000D03*
X138635000Y-103313500D03*
X143700000Y-106500000D03*
X150475000Y-106500000D03*
X143715000Y-112686500D03*
X142500000Y-107150000D03*
X153050000Y-107150000D03*
X142445000Y-112686500D03*
X141200000Y-107800000D03*
X160700000Y-107800000D03*
X141175000Y-112686500D03*
X131050000Y-118700000D03*
X131015000Y-112686500D03*
X166150000Y-115650000D03*
X171100000Y-107200000D03*
X206050000Y-103900000D03*
X204200000Y-105200000D03*
X150525000Y-109125000D03*
X153050000Y-109800000D03*
X148000000Y-110500000D03*
X208600000Y-103300000D03*
X198900000Y-100900000D03*
X198000000Y-100350000D03*
X201400000Y-107500000D03*
X213600000Y-107500000D03*
X213600000Y-104000000D03*
X194400000Y-106800000D03*
X218600000Y-106800000D03*
X218700000Y-112100000D03*
X196200000Y-106100000D03*
X217300000Y-106100000D03*
X217400000Y-112100000D03*
X210875000Y-101625000D03*
X210925000Y-105350000D03*
X216100000Y-105400000D03*
X216200000Y-112100000D03*
X214900000Y-112400000D03*
X223500000Y-115600000D03*
X220850000Y-111300000D03*
X207200000Y-109300000D03*
X207300000Y-112100000D03*
X208500000Y-110000000D03*
X208500000Y-112000000D03*
X209800000Y-108600000D03*
X209900000Y-112000000D03*
X211150000Y-113450000D03*
X224750000Y-116250000D03*
X244900000Y-118050000D03*
X242900000Y-115100000D03*
X242900000Y-104200000D03*
X249200000Y-115100000D03*
X246250000Y-104900000D03*
X244100000Y-115050000D03*
X244150000Y-111400000D03*
X249215000Y-124386500D03*
X247945000Y-124386500D03*
X246675000Y-124386500D03*
X239000000Y-120700000D03*
X237550000Y-123300000D03*
X239055000Y-124386500D03*
X230100000Y-114750000D03*
X238400000Y-123150000D03*
X239000000Y-121750000D03*
X197000000Y-119850000D03*
X176000000Y-112100000D03*
X176250000Y-107800000D03*
X184750000Y-107750000D03*
X184950000Y-116050000D03*
D25*
X192760000Y-128400000D02*
X190950000Y-128400000D01*
X190950000Y-128400000D02*
X190100000Y-127550000D01*
X240325000Y-115613500D02*
X240325000Y-116475000D01*
X240325000Y-116475000D02*
X241100000Y-117250000D01*
X246675000Y-116825000D02*
X246675000Y-115613500D01*
X246250000Y-117250000D02*
X246675000Y-116825000D01*
X241100000Y-117250000D02*
X246250000Y-117250000D01*
X181161880Y-119049138D02*
X180512742Y-118400000D01*
X178250000Y-118400000D02*
X180512742Y-118400000D01*
X178250000Y-118400000D02*
X177707107Y-118942893D01*
X179464823Y-111585177D02*
X178750000Y-112300000D01*
X178700000Y-114050000D02*
X175450000Y-114050000D01*
X175900000Y-126300000D02*
X175900000Y-124150000D01*
X175900000Y-124150000D02*
X174797918Y-123047918D01*
X175900000Y-126300000D02*
X176050000Y-126450000D01*
X222675000Y-104925000D02*
X224325000Y-104925000D01*
X221425000Y-103675000D02*
X222675000Y-104925000D01*
X111225000Y-117113500D02*
X111225000Y-115275000D01*
X111225000Y-115275000D02*
X111225000Y-115475000D01*
X111225000Y-115475000D02*
X111225000Y-115275000D01*
X104875000Y-117113500D02*
X104875000Y-115650000D01*
X133500000Y-115900000D02*
X134500000Y-116900000D01*
X116250000Y-115900000D02*
X118925000Y-115900000D01*
X118925000Y-115900000D02*
X133500000Y-115900000D01*
X115625000Y-115275000D02*
X116250000Y-115900000D01*
X105250000Y-115275000D02*
X111225000Y-115275000D01*
X111225000Y-115275000D02*
X115625000Y-115275000D01*
X104875000Y-115650000D02*
X105250000Y-115275000D01*
X141150000Y-103350000D02*
X141175000Y-103325000D01*
X141175000Y-103325000D02*
X141175000Y-103313500D01*
X134500000Y-115000000D02*
X134500000Y-116900000D01*
X239975000Y-119925000D02*
X228100000Y-119950000D01*
X228100000Y-119950000D02*
X223700000Y-118675000D01*
X240100000Y-120050000D02*
X239975000Y-119925000D01*
X209500000Y-116900000D02*
X209500000Y-115000000D01*
X174797918Y-123008936D02*
X174797918Y-123002082D01*
X174797918Y-123008936D02*
X174797918Y-123047918D01*
X179464823Y-111553806D02*
X179464823Y-111585177D01*
X179464823Y-111553806D02*
X179471194Y-111553806D01*
X179471194Y-111553806D02*
X180150000Y-110875000D01*
X180150000Y-110875000D02*
X180150000Y-110125000D01*
X180150000Y-110125000D02*
X181082107Y-109192893D01*
X181082107Y-109192893D02*
X182907107Y-109192893D01*
X134475000Y-117250000D02*
X134500000Y-117225000D01*
X134500000Y-117225000D02*
X134500000Y-116900000D01*
D26*
X174797918Y-123008936D02*
X174741064Y-123008936D01*
D25*
X197600000Y-116650000D02*
X197600000Y-116800000D01*
X197000000Y-117250000D02*
X197600000Y-116650000D01*
X197000000Y-117900000D02*
X197000000Y-117250000D01*
X197600000Y-116800000D02*
X196250000Y-115450000D01*
X168418146Y-113331854D02*
X173300000Y-108450000D01*
X173300000Y-108450000D02*
X173956854Y-108450000D01*
X173956854Y-108450000D02*
X174797918Y-109291064D01*
X185800000Y-115300000D02*
X187100000Y-115300000D01*
X187100000Y-115300000D02*
X187250000Y-115450000D01*
X187250000Y-115450000D02*
X196250000Y-115450000D01*
X185750000Y-127275000D02*
X185750000Y-127200000D01*
X197450000Y-116650000D02*
X197600000Y-116800000D01*
X204550000Y-116650000D02*
X197450000Y-116650000D01*
X207325000Y-119425000D02*
X204550000Y-116650000D01*
X211425000Y-119425000D02*
X207325000Y-119425000D01*
X211475000Y-119475000D02*
X211425000Y-119425000D01*
X242100000Y-119250000D02*
X242000000Y-119250000D01*
X241900000Y-119150000D02*
X229400000Y-119150000D01*
X242000000Y-119250000D02*
X241900000Y-119150000D01*
X175175000Y-121500000D02*
X175175000Y-121625000D01*
X177550000Y-124700000D02*
X177600000Y-124700000D01*
X175994976Y-123144976D02*
X177550000Y-124700000D01*
X175994976Y-122444976D02*
X175994976Y-123144976D01*
X175175000Y-121625000D02*
X175994976Y-122444976D01*
X137350000Y-112701500D02*
X137365000Y-112686500D01*
X177767767Y-109856750D02*
X177767767Y-109832233D01*
X177767767Y-109832233D02*
X178675000Y-108925000D01*
X213050000Y-116450000D02*
X213050000Y-115000000D01*
X213675000Y-117075000D02*
X213050000Y-116450000D01*
X219600000Y-117075000D02*
X213675000Y-117075000D01*
X220275000Y-117750000D02*
X219600000Y-117075000D01*
X230925000Y-117750000D02*
X220275000Y-117750000D01*
X211500000Y-115000000D02*
X211500000Y-116900000D01*
X174232233Y-122443250D02*
X174232233Y-122442767D01*
X174232233Y-122442767D02*
X175175000Y-121500000D01*
X175175000Y-119575000D02*
X173975000Y-118375000D01*
X175175000Y-121500000D02*
X175175000Y-120500000D01*
X175175000Y-120500000D02*
X175175000Y-119575000D01*
X174232233Y-122443250D02*
X174231750Y-122443250D01*
X181727565Y-118483452D02*
X181727565Y-118502565D01*
X181727565Y-118502565D02*
X182675000Y-119450000D01*
X174797918Y-109291064D02*
X174816064Y-109291064D01*
X174816064Y-109291064D02*
X176100000Y-110575000D01*
X177049517Y-110575000D02*
X177767767Y-109856750D01*
X176100000Y-110575000D02*
X177049517Y-110575000D01*
X168418146Y-114225000D02*
X168418146Y-113331854D01*
X152175000Y-116325000D02*
X164875000Y-116325000D01*
X168418146Y-114225000D02*
X169141064Y-114947918D01*
X165175000Y-114225000D02*
X168418146Y-114225000D01*
X165125000Y-114275000D02*
X165175000Y-114225000D01*
X164875000Y-116325000D02*
X164950000Y-116400000D01*
X142975000Y-116325000D02*
X152175000Y-116325000D01*
X139650000Y-119650000D02*
X142975000Y-116325000D01*
X139650000Y-119650000D02*
X137075000Y-119650000D01*
D26*
X106700000Y-128650000D02*
X107415000Y-127935000D01*
X107415000Y-126486500D02*
X107415000Y-127935000D01*
D25*
X136550000Y-116875000D02*
X136525000Y-116900000D01*
X123300000Y-128325000D02*
X136725000Y-128325000D01*
X112500000Y-128325000D02*
X123300000Y-128325000D01*
X112400000Y-128225000D02*
X112500000Y-128325000D01*
X136525000Y-116900000D02*
X136500000Y-116900000D01*
X242900000Y-124350000D02*
X242865000Y-124385000D01*
X242865000Y-124385000D02*
X242865000Y-124986500D01*
X212400000Y-115000000D02*
X212400000Y-112721500D01*
X212400000Y-112721500D02*
X212365000Y-112686500D01*
X211500000Y-115000000D02*
X212400000Y-115000000D01*
X212400000Y-115000000D02*
X213050000Y-115000000D01*
X136500000Y-115000000D02*
X136500000Y-116900000D01*
X137350000Y-115000000D02*
X137350000Y-112701500D01*
X138050000Y-115000000D02*
X137350000Y-115000000D01*
X137350000Y-115000000D02*
X136500000Y-115000000D01*
X188200000Y-127550000D02*
X186100000Y-127550000D01*
X186100000Y-127550000D02*
X185750000Y-127200000D01*
D26*
X180030509Y-120180509D02*
X180080509Y-120180509D01*
X180080509Y-120180509D02*
X181100000Y-121200000D01*
X181100000Y-121200000D02*
X186700000Y-121200000D01*
X180596194Y-119614823D02*
X180596194Y-119646194D01*
X180596194Y-119646194D02*
X181600000Y-120650000D01*
X184125000Y-118475000D02*
X184400000Y-118200000D01*
X184125000Y-119675000D02*
X184125000Y-118475000D01*
X183150000Y-120650000D02*
X184125000Y-119675000D01*
X181600000Y-120650000D02*
X183150000Y-120650000D01*
X184400000Y-118200000D02*
X186700000Y-118200000D01*
X180596194Y-119614823D02*
X180614823Y-119614823D01*
X184400000Y-118200000D02*
X186700000Y-118200000D01*
X179850000Y-113400000D02*
X180564823Y-112685177D01*
X179100000Y-113400000D02*
X179850000Y-113400000D01*
X178650000Y-112950000D02*
X179100000Y-113400000D01*
X176150000Y-112950000D02*
X178650000Y-112950000D01*
X180564823Y-112685177D02*
X180596194Y-112685177D01*
X183200000Y-114650000D02*
X182902082Y-114947918D01*
X182902082Y-114947918D02*
X182858936Y-114947918D01*
X168000000Y-115400000D02*
X167900000Y-115400000D01*
X180100000Y-115400000D02*
X170750000Y-115400000D01*
X181683452Y-113816548D02*
X180100000Y-115400000D01*
X167500000Y-115000000D02*
X145000000Y-115000000D01*
X167900000Y-115400000D02*
X167500000Y-115000000D01*
X181727565Y-113816548D02*
X181683452Y-113816548D01*
X182744113Y-112800000D02*
X181727565Y-113816548D01*
X185500000Y-112800000D02*
X182744113Y-112800000D01*
X187500000Y-114800000D02*
X185500000Y-112800000D01*
X196500000Y-114800000D02*
X187500000Y-114800000D01*
X197700000Y-116000000D02*
X196500000Y-114800000D01*
X204800000Y-116000000D02*
X197700000Y-116000000D01*
X207600000Y-118800000D02*
X204800000Y-116000000D01*
X219450000Y-118800000D02*
X207600000Y-118800000D01*
X219600000Y-118650000D02*
X219450000Y-118800000D01*
X182000000Y-113550000D02*
X181733452Y-113816548D01*
X181733452Y-113816548D02*
X181727565Y-113816548D01*
X220050000Y-113500000D02*
X219985000Y-113435000D01*
X219985000Y-113435000D02*
X219985000Y-112686500D01*
X135550000Y-118300000D02*
X139000000Y-118300000D01*
X139300000Y-118000000D02*
X142300000Y-115000000D01*
X142300000Y-115000000D02*
X145000000Y-115000000D01*
X139000000Y-118300000D02*
X139300000Y-118000000D01*
X115035000Y-126486500D02*
X135536500Y-126486500D01*
X135536500Y-126486500D02*
X135550000Y-126500000D01*
X145000000Y-113200000D02*
X144985000Y-113185000D01*
X144985000Y-113185000D02*
X144985000Y-112686500D01*
X219985000Y-112885000D02*
X220000000Y-112900000D01*
X219985000Y-112885000D02*
X219985000Y-112686500D01*
X157750000Y-117800000D02*
X146350000Y-117800000D01*
X167500000Y-117800000D02*
X157750000Y-117800000D01*
X167650000Y-117650000D02*
X167500000Y-117800000D01*
X146350000Y-121850000D02*
X146350000Y-121900000D01*
X146350000Y-121900000D02*
X146350000Y-121850000D01*
X146350000Y-121850000D02*
X146350000Y-121900000D01*
X124850000Y-124250000D02*
X125250000Y-123850000D01*
X125250000Y-123850000D02*
X136650000Y-123850000D01*
X136650000Y-123850000D02*
X138600000Y-121900000D01*
X138600000Y-121900000D02*
X146350000Y-121900000D01*
X122300000Y-124250000D02*
X124850000Y-124250000D01*
X182000000Y-114650000D02*
X182267767Y-114382233D01*
X171000000Y-116850000D02*
X180500000Y-116850000D01*
X170850000Y-117000000D02*
X171000000Y-116850000D01*
X182267767Y-114382233D02*
X182293250Y-114382233D01*
X165825000Y-105900000D02*
X164150000Y-105900000D01*
X174675000Y-105000000D02*
X173775000Y-105900000D01*
X178870000Y-105000000D02*
X174675000Y-105000000D01*
X173775000Y-105900000D02*
X165825000Y-105900000D01*
X164150000Y-105900000D02*
X164100000Y-105950000D01*
X182293250Y-117917767D02*
X182293250Y-117893250D01*
X182293250Y-117893250D02*
X181550000Y-117150000D01*
X181550000Y-117150000D02*
X181300000Y-117150000D01*
X181300000Y-117150000D02*
X180900000Y-117550000D01*
X180900000Y-117550000D02*
X179950000Y-117550000D01*
X179950000Y-117550000D02*
X179900000Y-117600000D01*
X101065000Y-117113500D02*
X101065000Y-119165000D01*
X101950000Y-120050000D02*
X119600000Y-120050000D01*
X101065000Y-119165000D02*
X101950000Y-120050000D01*
X171969491Y-120180509D02*
X171919491Y-120180509D01*
X171919491Y-120180509D02*
X171250002Y-120849998D01*
X158250000Y-121050000D02*
X158250000Y-122700000D01*
X159050000Y-120250000D02*
X158250000Y-121050000D01*
X167100000Y-120250000D02*
X159050000Y-120250000D01*
X167699998Y-120849998D02*
X167100000Y-120250000D01*
X171250002Y-120849998D02*
X167699998Y-120849998D01*
X171969491Y-120180509D02*
X171969491Y-120230509D01*
X172535177Y-120746194D02*
X172503806Y-120746194D01*
X172503806Y-120746194D02*
X171950000Y-121300000D01*
X161250000Y-121850000D02*
X161250000Y-122700000D01*
X162200000Y-120900000D02*
X161250000Y-121850000D01*
X166950000Y-120900000D02*
X162200000Y-120900000D01*
X167350000Y-121300000D02*
X166950000Y-120900000D01*
X171950000Y-121300000D02*
X167350000Y-121300000D01*
X172535177Y-120746194D02*
X172535177Y-120764823D01*
X173100862Y-121311880D02*
X173100862Y-121349138D01*
X173100862Y-121349138D02*
X172500000Y-121950000D01*
X163300000Y-121550000D02*
X162750000Y-122100000D01*
X166800000Y-121550000D02*
X163300000Y-121550000D01*
X167200000Y-121950000D02*
X166800000Y-121550000D01*
X172500000Y-121950000D02*
X167200000Y-121950000D01*
X162750000Y-122100000D02*
X162750000Y-122700000D01*
X173100862Y-121311880D02*
X173100862Y-121349136D01*
X173666548Y-121877565D02*
X173666548Y-121883452D01*
X173666548Y-121883452D02*
X172850000Y-122700000D01*
X172850000Y-122700000D02*
X165750000Y-122700000D01*
X173666548Y-121877565D02*
X173622435Y-121877565D01*
X158450000Y-119000000D02*
X144500000Y-119000000D01*
X143700000Y-119800000D02*
X143700000Y-120500000D01*
X144500000Y-119000000D02*
X143700000Y-119800000D01*
X170838120Y-119049138D02*
X170800862Y-119049138D01*
X170800862Y-119049138D02*
X170000000Y-119850000D01*
X167450000Y-119000000D02*
X158450000Y-119000000D01*
X168300000Y-119850000D02*
X167450000Y-119000000D01*
X170000000Y-119850000D02*
X168300000Y-119850000D01*
X170838120Y-119049138D02*
X170750862Y-119049138D01*
X158150000Y-118350000D02*
X146950000Y-118350000D01*
X141950000Y-118450000D02*
X140500000Y-119900000D01*
X146850000Y-118450000D02*
X141950000Y-118450000D01*
X146950000Y-118350000D02*
X146850000Y-118450000D01*
X140450000Y-122600000D02*
X138700000Y-122600000D01*
X138700000Y-122600000D02*
X136200000Y-125100000D01*
X136200000Y-125100000D02*
X132900000Y-125100000D01*
X170272435Y-118483452D02*
X170266548Y-118483452D01*
X170266548Y-118483452D02*
X169500000Y-119250000D01*
X167600000Y-118350000D02*
X158150000Y-118350000D01*
X168500000Y-119250000D02*
X167600000Y-118350000D01*
X169500000Y-119250000D02*
X168500000Y-119250000D01*
X170272435Y-118483452D02*
X170272435Y-118527565D01*
X165650000Y-117200000D02*
X157450000Y-117200000D01*
X169900000Y-116200000D02*
X172750000Y-116200000D01*
X172900000Y-111950000D02*
X172535177Y-111585177D01*
X172750000Y-116200000D02*
X172800000Y-116150000D01*
X166650000Y-116200000D02*
X169100000Y-116200000D01*
X166350000Y-116500000D02*
X166650000Y-116200000D01*
X169100000Y-116200000D02*
X169900000Y-116200000D01*
X166350000Y-116500000D02*
X165650000Y-117200000D01*
X157450000Y-117200000D02*
X149400000Y-117150000D01*
X172535177Y-111585177D02*
X172535177Y-111553806D01*
X172535177Y-111685177D02*
X172535177Y-111553806D01*
X158750000Y-119650000D02*
X151000000Y-119650000D01*
X151000000Y-119650000D02*
X150950000Y-119700000D01*
X171403806Y-119614823D02*
X171403806Y-119646194D01*
X171403806Y-119646194D02*
X170700000Y-120350000D01*
X167350000Y-119650000D02*
X158750000Y-119650000D01*
X158750000Y-119650000D02*
X158700000Y-119650000D01*
X168050000Y-120350000D02*
X167350000Y-119650000D01*
X170700000Y-120350000D02*
X168050000Y-120350000D01*
X171403806Y-119614823D02*
X171335175Y-119614823D01*
X215900000Y-121500000D02*
X216000000Y-121500000D01*
X216000000Y-121500000D02*
X216350000Y-121150000D01*
X216350000Y-121150000D02*
X216350000Y-120500000D01*
X193300000Y-121500000D02*
X215900000Y-121500000D01*
X189152082Y-117352082D02*
X193300000Y-121500000D01*
X182858936Y-117352082D02*
X189152082Y-117352082D01*
X215900000Y-121500000D02*
X215800000Y-121500000D01*
X182858936Y-117352082D02*
X182858936Y-117358936D01*
X180850000Y-122050000D02*
X180768629Y-122050000D01*
X180768629Y-122050000D02*
X179464823Y-120746194D01*
X180850000Y-122050000D02*
X181000000Y-122050000D01*
X218550000Y-122050000D02*
X180850000Y-122050000D01*
X219350000Y-120500000D02*
X219350000Y-121250000D01*
X219350000Y-121250000D02*
X218550000Y-122050000D01*
X179464823Y-120746194D02*
X179546194Y-120746194D01*
X220850000Y-120500000D02*
X220850000Y-120850000D01*
X220850000Y-120850000D02*
X219150000Y-122550000D01*
X178899138Y-121311880D02*
X178911880Y-121311880D01*
X178911880Y-121311880D02*
X180150000Y-122550000D01*
X180150000Y-122550000D02*
X219150000Y-122550000D01*
X219899969Y-123074985D02*
X219925015Y-123074985D01*
X221300000Y-121700000D02*
X223300000Y-121700000D01*
X223300000Y-121700000D02*
X223850000Y-121150000D01*
X219925015Y-123074985D02*
X221300000Y-121700000D01*
X223850000Y-121150000D02*
X223850000Y-120500000D01*
X178333452Y-121877565D02*
X178377565Y-121877565D01*
X178377565Y-121877565D02*
X179550000Y-123050000D01*
X179550000Y-123050000D02*
X219899969Y-123074985D01*
X219899969Y-123074985D02*
X219925000Y-123075000D01*
X204100000Y-123575000D02*
X204875000Y-123575000D01*
X205600000Y-124300000D02*
X205600000Y-125000000D01*
X204875000Y-123575000D02*
X205600000Y-124300000D01*
X204100000Y-123575000D02*
X178975000Y-123575000D01*
X177767767Y-122443250D02*
X177843250Y-122443250D01*
X177843250Y-122443250D02*
X178975000Y-123575000D01*
X177202082Y-123008936D02*
X177208936Y-123008936D01*
X177208936Y-123008936D02*
X180400000Y-126200000D01*
X180400000Y-126200000D02*
X189800000Y-126200000D01*
X189800000Y-126200000D02*
X190350000Y-125650000D01*
X190350000Y-125650000D02*
X190350000Y-124900000D01*
X199350000Y-120750000D02*
X203800000Y-120750000D01*
X199350000Y-120750000D02*
X193500000Y-120750000D01*
X193500000Y-120750000D02*
X189450000Y-116700000D01*
X189450000Y-116700000D02*
X183900000Y-116700000D01*
X183500000Y-116700000D02*
X183000000Y-116200000D01*
X183000000Y-116200000D02*
X178312742Y-116200000D01*
X183900000Y-116700000D02*
X183500000Y-116700000D01*
X173800000Y-116200000D02*
X178312742Y-116200000D01*
X173700000Y-116100000D02*
X173800000Y-116200000D01*
X176900000Y-112050000D02*
X177837258Y-112050000D01*
X176800000Y-112150000D02*
X176900000Y-112050000D01*
X177837258Y-112050000D02*
X178899138Y-110988120D01*
X178250000Y-110500000D02*
X178327565Y-110422435D01*
X178327565Y-110422435D02*
X178333452Y-110422435D01*
X108685000Y-126486500D02*
X108685000Y-127635000D01*
X109650000Y-128600000D02*
X110050000Y-128600000D01*
X108685000Y-127635000D02*
X109650000Y-128600000D01*
X139950000Y-115000000D02*
X138800000Y-113850000D01*
X138800000Y-113850000D02*
X138800000Y-112851500D01*
X138800000Y-112851500D02*
X138635000Y-112686500D01*
X214950000Y-115000000D02*
X214550000Y-115000000D01*
X214000000Y-113051500D02*
X213635000Y-112686500D01*
X214000000Y-114450000D02*
X214000000Y-113051500D01*
X214550000Y-115000000D02*
X214000000Y-114450000D01*
X244150000Y-124400000D02*
X244135000Y-124415000D01*
X244135000Y-124415000D02*
X244135000Y-124986500D01*
X174400000Y-107850000D02*
X174700000Y-107850000D01*
X175450000Y-107100000D02*
X182050000Y-107100000D01*
X174700000Y-107850000D02*
X175450000Y-107100000D01*
X172275000Y-107850000D02*
X174400000Y-107850000D01*
X171687500Y-108437500D02*
X172275000Y-107850000D01*
X144975000Y-108437500D02*
X171687500Y-108437500D01*
X115035000Y-117113500D02*
X115035000Y-116335000D01*
X115035000Y-116335000D02*
X114825000Y-116125000D01*
X114875000Y-114400000D02*
X115775000Y-114400000D01*
X115775000Y-114400000D02*
X116388500Y-115013500D01*
X116388500Y-115013500D02*
X116400000Y-115025000D01*
X116400000Y-115025000D02*
X116400000Y-115013500D01*
X144985000Y-103385000D02*
X144985000Y-103313500D01*
X144975000Y-108450000D02*
X144975000Y-108437500D01*
X144975000Y-108437500D02*
X144975000Y-108450000D01*
X144975000Y-108450000D02*
X144975000Y-108437500D01*
X135062500Y-108437500D02*
X144975000Y-108437500D01*
X218900000Y-117900000D02*
X218700000Y-118100000D01*
X218700000Y-118100000D02*
X207850000Y-118100000D01*
X207850000Y-118100000D02*
X205150000Y-115400000D01*
X205150000Y-115400000D02*
X198100000Y-115400000D01*
X198100000Y-115400000D02*
X196950000Y-114250000D01*
X196950000Y-114250000D02*
X187900000Y-114250000D01*
X187900000Y-114250000D02*
X185800000Y-112150000D01*
X185800000Y-112150000D02*
X182262742Y-112150000D01*
X182262742Y-112150000D02*
X181161880Y-113250862D01*
X130300000Y-110900000D02*
X130050000Y-110900000D01*
X130063500Y-115013500D02*
X126186500Y-115013500D01*
X130100000Y-115050000D02*
X130063500Y-115013500D01*
X116400000Y-115013500D02*
X126186500Y-115013500D01*
X250485000Y-115613500D02*
X250485000Y-114685000D01*
X250485000Y-114685000D02*
X246500000Y-110700000D01*
X246500000Y-110700000D02*
X221350000Y-110700000D01*
X221350000Y-110700000D02*
X221250000Y-110600000D01*
X221250000Y-110600000D02*
X220250000Y-110600000D01*
X219950000Y-103850000D02*
X219985000Y-103815000D01*
X219985000Y-103815000D02*
X219985000Y-103313500D01*
X219985000Y-103835000D02*
X219985000Y-103313500D01*
X145000000Y-103400000D02*
X144985000Y-103385000D01*
X132600000Y-110900000D02*
X135062500Y-108437500D01*
X130300000Y-110900000D02*
X132600000Y-110900000D01*
X220013500Y-103313500D02*
X219985000Y-103313500D01*
X102350000Y-116450000D02*
X102335000Y-116465000D01*
X102335000Y-116465000D02*
X102335000Y-117113500D01*
X102600000Y-102750000D02*
X110650000Y-102750000D01*
X110650000Y-102750000D02*
X110680000Y-102720000D01*
X102630000Y-102720000D02*
X102600000Y-102750000D01*
X125920000Y-102720000D02*
X125920000Y-102320000D01*
X125920000Y-102320000D02*
X124050000Y-100450000D01*
X124050000Y-100450000D02*
X103850000Y-100450000D01*
X103850000Y-100450000D02*
X103600000Y-100700000D01*
X103600000Y-116450000D02*
X103605000Y-116455000D01*
X103605000Y-116455000D02*
X103605000Y-117113500D01*
X120840000Y-102720000D02*
X120840000Y-102390000D01*
X120840000Y-102390000D02*
X119650000Y-101200000D01*
X107450000Y-101150000D02*
X107500000Y-101200000D01*
X107500000Y-101200000D02*
X119650000Y-101200000D01*
X113765000Y-117035000D02*
X113900000Y-116900000D01*
X114970000Y-106050000D02*
X118300000Y-102720000D01*
X108300000Y-106050000D02*
X114970000Y-106050000D01*
X108250000Y-106100000D02*
X108300000Y-106050000D01*
X113850000Y-114450000D02*
X108250000Y-114450000D01*
X113900000Y-114500000D02*
X113850000Y-114450000D01*
X113765000Y-117113500D02*
X113765000Y-117035000D01*
X118300000Y-102720000D02*
X118300000Y-102750000D01*
X108685000Y-117113500D02*
X108685000Y-118285000D01*
X108950000Y-118550000D02*
X123350000Y-118550000D01*
X108685000Y-118285000D02*
X108950000Y-118550000D01*
X109350000Y-123450000D02*
X109150000Y-123450000D01*
X109400000Y-104600000D02*
X111650000Y-104600000D01*
X111250000Y-123450000D02*
X109350000Y-123450000D01*
X113765000Y-125965000D02*
X111250000Y-123450000D01*
X111650000Y-104600000D02*
X113220000Y-103030000D01*
X109050000Y-104600000D02*
X109400000Y-104600000D01*
X109000000Y-104650000D02*
X109050000Y-104600000D01*
X109150000Y-123450000D02*
X108800000Y-123450000D01*
X113220000Y-102720000D02*
X113220000Y-103030000D01*
X113765000Y-126486500D02*
X113765000Y-125965000D01*
X108700000Y-105450000D02*
X106750000Y-105450000D01*
X106850000Y-124100000D02*
X106750000Y-124000000D01*
X106850000Y-124100000D02*
X108550000Y-124100000D01*
X106750000Y-105450000D02*
X106700000Y-105500000D01*
X113200000Y-105450000D02*
X115760000Y-102890000D01*
X108650000Y-105450000D02*
X108700000Y-105450000D01*
X108700000Y-105450000D02*
X113200000Y-105450000D01*
X109300000Y-124100000D02*
X108550000Y-124100000D01*
X112495000Y-125695000D02*
X110900000Y-124100000D01*
X110900000Y-124100000D02*
X109300000Y-124100000D01*
X115760000Y-102720000D02*
X115760000Y-102890000D01*
X115520000Y-103230000D02*
X115520000Y-102720000D01*
X112495000Y-126486500D02*
X112495000Y-125695000D01*
X104400000Y-106750000D02*
X107000000Y-106750000D01*
X120350000Y-104350000D02*
X122100000Y-104350000D01*
X123380000Y-103070000D02*
X122100000Y-104350000D01*
X107000000Y-106750000D02*
X117950000Y-106750000D01*
X117950000Y-106750000D02*
X120350000Y-104350000D01*
X109300000Y-124750000D02*
X104400000Y-124700000D01*
X110850000Y-124750000D02*
X109300000Y-124750000D01*
X111225000Y-125125000D02*
X110850000Y-124750000D01*
X123380000Y-102720000D02*
X123380000Y-103070000D01*
X111225000Y-126486500D02*
X111225000Y-125125000D01*
X110000000Y-119200000D02*
X120800000Y-119200000D01*
X131015000Y-103313500D02*
X126628500Y-107700000D01*
X101200000Y-107700000D02*
X126628500Y-107700000D01*
X101100000Y-107800000D02*
X101200000Y-107700000D01*
X131015000Y-103315000D02*
X131015000Y-103313500D01*
X102500000Y-120750000D02*
X113200000Y-120750000D01*
X102350000Y-120900000D02*
X102500000Y-120750000D01*
X103850000Y-121450000D02*
X115800000Y-121450000D01*
X103650000Y-121650000D02*
X103850000Y-121450000D01*
X105250000Y-122100000D02*
X110700000Y-122100000D01*
X105050000Y-122300000D02*
X105250000Y-122100000D01*
X116900000Y-122750000D02*
X116900000Y-122800000D01*
X116900000Y-122800000D02*
X116900000Y-122750000D01*
X116900000Y-122750000D02*
X116900000Y-122800000D01*
X106200000Y-122800000D02*
X116900000Y-122800000D01*
X106050000Y-122950000D02*
X106200000Y-122800000D01*
X160000000Y-100800000D02*
X161300000Y-100800000D01*
X160000000Y-100800000D02*
X134300000Y-100800000D01*
X134300000Y-100800000D02*
X133555000Y-101545000D01*
X161300000Y-100800000D02*
X163220000Y-102720000D01*
X133555000Y-101545000D02*
X133555000Y-103313500D01*
X137365000Y-101735000D02*
X137365000Y-103313500D01*
X137800000Y-101300000D02*
X137365000Y-101735000D01*
X156500000Y-101300000D02*
X137800000Y-101300000D01*
X158140000Y-102940000D02*
X156500000Y-101300000D01*
X143715000Y-103313500D02*
X143715000Y-104790000D01*
X153120000Y-105200000D02*
X155600000Y-102720000D01*
X144125000Y-105200000D02*
X153120000Y-105200000D01*
X143715000Y-104790000D02*
X144125000Y-105200000D01*
X138700000Y-105850000D02*
X160050000Y-105850000D01*
X138625000Y-105925000D02*
X138700000Y-105850000D01*
X150475000Y-106500000D02*
X143700000Y-106500000D01*
X153050000Y-107150000D02*
X142500000Y-107150000D01*
X160700000Y-107800000D02*
X141200000Y-107800000D01*
X148500000Y-114300000D02*
X156720000Y-114300000D01*
X140900000Y-114300000D02*
X148500000Y-114300000D01*
X139905000Y-113305000D02*
X140900000Y-114300000D01*
X156720000Y-114300000D02*
X158140000Y-112880000D01*
X139905000Y-112686500D02*
X139905000Y-113305000D01*
X171100000Y-107200000D02*
X174450000Y-107200000D01*
X131050000Y-118700000D02*
X131300000Y-118950000D01*
X131300000Y-118950000D02*
X139300000Y-118950000D01*
X139300000Y-118950000D02*
X142600000Y-115650000D01*
X142600000Y-115650000D02*
X162650000Y-115650000D01*
X162650000Y-115650000D02*
X166150000Y-115650000D01*
X175200000Y-106450000D02*
X188100000Y-106450000D01*
X174450000Y-107200000D02*
X175200000Y-106450000D01*
X201500000Y-105200000D02*
X204200000Y-105200000D01*
X206050000Y-103900000D02*
X206015000Y-103865000D01*
X206015000Y-103865000D02*
X206015000Y-103313500D01*
X201550000Y-105200000D02*
X201500000Y-105200000D01*
X201500000Y-105200000D02*
X189350000Y-105200000D01*
X188100000Y-106450000D02*
X189350000Y-105200000D01*
X135275000Y-109125000D02*
X150525000Y-109125000D01*
X135275000Y-109125000D02*
X132285000Y-112115000D01*
X132285000Y-112686500D02*
X132285000Y-112115000D01*
X135700000Y-109800000D02*
X153050000Y-109800000D01*
X135700000Y-109800000D02*
X133555000Y-111945000D01*
X133555000Y-112686500D02*
X133555000Y-111945000D01*
X136087500Y-110512500D02*
X147987500Y-110512500D01*
X147987500Y-110512500D02*
X148000000Y-110500000D01*
X134825000Y-112686500D02*
X134825000Y-111775000D01*
X134825000Y-111775000D02*
X136087500Y-110512500D01*
X136095000Y-112686500D02*
X136095000Y-111580000D01*
X136525000Y-111150000D02*
X155140000Y-111150000D01*
X136095000Y-111580000D02*
X136525000Y-111150000D01*
X155600000Y-112880000D02*
X155600000Y-111610000D01*
X155140000Y-111150000D02*
X155600000Y-111610000D01*
X188730000Y-102720000D02*
X188730000Y-102880000D01*
X188730000Y-102880000D02*
X190350000Y-104500000D01*
X190350000Y-104500000D02*
X204550000Y-104500000D01*
X204550000Y-104500000D02*
X204900000Y-104850000D01*
X204900000Y-104850000D02*
X206850000Y-104850000D01*
X206850000Y-104850000D02*
X207285000Y-104415000D01*
X207285000Y-104415000D02*
X207285000Y-103313500D01*
X207285000Y-102915000D02*
X207285000Y-103313500D01*
X208600000Y-103300000D02*
X208586500Y-103313500D01*
X208586500Y-103313500D02*
X208555000Y-103313500D01*
X198900000Y-100900000D02*
X210100000Y-100900000D01*
X210100000Y-100900000D02*
X211300000Y-100900000D01*
X211300000Y-100900000D02*
X212365000Y-101965000D01*
X212365000Y-101965000D02*
X212365000Y-103313500D01*
X218715000Y-101615000D02*
X218715000Y-103313500D01*
X217350000Y-100250000D02*
X218715000Y-101615000D01*
X198100000Y-100250000D02*
X217350000Y-100250000D01*
X198000000Y-100350000D02*
X198100000Y-100250000D01*
X201400000Y-107500000D02*
X213600000Y-107500000D01*
X213600000Y-104000000D02*
X213635000Y-103965000D01*
X213635000Y-103965000D02*
X213635000Y-103313500D01*
X194400000Y-106800000D02*
X218600000Y-106800000D01*
X218700000Y-112100000D02*
X218715000Y-112115000D01*
X218715000Y-112115000D02*
X218715000Y-112686500D01*
X196200000Y-106100000D02*
X217300000Y-106100000D01*
X217400000Y-112100000D02*
X217445000Y-112145000D01*
X217445000Y-112145000D02*
X217445000Y-112686500D01*
X201430000Y-102720000D02*
X201480000Y-102720000D01*
X201480000Y-102720000D02*
X202849998Y-101350002D01*
X202849998Y-101350002D02*
X209600002Y-101350002D01*
X209600002Y-101350002D02*
X210875000Y-101625000D01*
X210925000Y-105350000D02*
X210925000Y-105400000D01*
X210925000Y-105400000D02*
X210925000Y-105350000D01*
X210925000Y-105350000D02*
X210925000Y-105400000D01*
X210925000Y-105400000D02*
X216100000Y-105400000D01*
X216200000Y-112100000D02*
X216175000Y-112125000D01*
X216175000Y-112125000D02*
X216175000Y-112686500D01*
X214900000Y-112400000D02*
X214905000Y-112405000D01*
X214905000Y-112405000D02*
X214905000Y-112686500D01*
X214905000Y-112895000D02*
X214905000Y-112686500D01*
X206100000Y-112601500D02*
X206100000Y-111300000D01*
X223500000Y-115600000D02*
X223513500Y-115613500D01*
X223513500Y-115613500D02*
X236515000Y-115613500D01*
X206100000Y-111300000D02*
X220600000Y-111300000D01*
X220600000Y-111300000D02*
X220850000Y-111300000D01*
X206100000Y-112601500D02*
X206015000Y-112686500D01*
X191270000Y-112880000D02*
X191270000Y-111830000D01*
X191270000Y-111830000D02*
X191490000Y-111610000D01*
X191490000Y-111610000D02*
X193800000Y-109300000D01*
X193800000Y-109300000D02*
X207200000Y-109300000D01*
X207300000Y-112100000D02*
X207285000Y-112115000D01*
X207285000Y-112115000D02*
X207285000Y-112686500D01*
X193810000Y-112880000D02*
X193810000Y-111790000D01*
X193810000Y-111790000D02*
X193990000Y-111610000D01*
X193990000Y-111610000D02*
X195600000Y-110000000D01*
X195600000Y-110000000D02*
X208500000Y-110000000D01*
X208500000Y-112000000D02*
X208555000Y-112055000D01*
X208555000Y-112055000D02*
X208555000Y-112686500D01*
X188730000Y-112880000D02*
X188730000Y-111870000D01*
X188730000Y-111870000D02*
X188990000Y-111610000D01*
X188990000Y-111610000D02*
X192000000Y-108600000D01*
X192000000Y-108600000D02*
X209800000Y-108600000D01*
X209900000Y-112000000D02*
X209825000Y-112075000D01*
X209825000Y-112075000D02*
X209825000Y-112686500D01*
X211150000Y-113450000D02*
X211095000Y-113395000D01*
X211095000Y-113395000D02*
X211095000Y-112686500D01*
X211095000Y-113595000D02*
X211095000Y-112686500D01*
X237785000Y-115613500D02*
X237785000Y-116565000D01*
X237785000Y-116565000D02*
X237300000Y-117050000D01*
X237300000Y-117050000D02*
X236050000Y-117050000D01*
X236050000Y-117050000D02*
X235250000Y-116250000D01*
X235250000Y-116250000D02*
X224750000Y-116250000D01*
X239055000Y-115613500D02*
X239055000Y-116455000D01*
X239055000Y-116455000D02*
X240650000Y-118050000D01*
X240650000Y-118050000D02*
X244900000Y-118050000D01*
X239055000Y-115245000D02*
X239055000Y-115613500D01*
X239055000Y-115613500D02*
X239055000Y-114945000D01*
X238970000Y-114928500D02*
X239055000Y-115013500D01*
X236190000Y-102720000D02*
X236190000Y-103040000D01*
X236190000Y-103040000D02*
X237350000Y-104200000D01*
X242900000Y-115100000D02*
X242865000Y-115135000D01*
X242865000Y-115135000D02*
X242865000Y-115613500D01*
X237350000Y-104200000D02*
X242900000Y-104200000D01*
X233650000Y-102720000D02*
X233650000Y-102900000D01*
X233650000Y-102900000D02*
X235650000Y-104900000D01*
X233890000Y-102720000D02*
X233890000Y-103190000D01*
X249200000Y-115100000D02*
X249215000Y-115115000D01*
X249215000Y-115115000D02*
X249215000Y-115613500D01*
X235650000Y-104900000D02*
X246250000Y-104900000D01*
X238730000Y-112880000D02*
X238730000Y-112370000D01*
X238730000Y-112370000D02*
X239700000Y-111400000D01*
X244100000Y-115050000D02*
X244135000Y-115085000D01*
X244135000Y-115085000D02*
X244135000Y-115613500D01*
X239700000Y-111400000D02*
X244150000Y-111400000D01*
X236430000Y-112880000D02*
X236430000Y-112320000D01*
X245405000Y-120955000D02*
X245405000Y-124986500D01*
X245400000Y-120700000D02*
X245405000Y-120955000D01*
X239000000Y-120700000D02*
X245400000Y-120700000D01*
X237785000Y-124986500D02*
X237785000Y-123535000D01*
X237785000Y-123535000D02*
X237550000Y-123300000D01*
X226030000Y-112880000D02*
X227900000Y-114750000D01*
X227900000Y-114750000D02*
X227900000Y-114700000D01*
X227900000Y-114700000D02*
X227900000Y-114750000D01*
X240325000Y-124986500D02*
X240325000Y-123425000D01*
X230100000Y-114750000D02*
X227900000Y-114750000D01*
X240050000Y-123150000D02*
X238400000Y-123150000D01*
X240325000Y-123425000D02*
X240050000Y-123150000D01*
X241595000Y-123195000D02*
X239000000Y-121750000D01*
X241595000Y-124386500D02*
X241595000Y-123195000D01*
X180030509Y-112119491D02*
X180030509Y-112069491D01*
X180030509Y-112069491D02*
X181492893Y-110607107D01*
X197000000Y-119850000D02*
X197000000Y-119800000D01*
X172750000Y-112900000D02*
X175200000Y-112900000D01*
X175200000Y-112900000D02*
X176000000Y-112100000D01*
X176250000Y-107800000D02*
X176300000Y-107750000D01*
X176300000Y-107750000D02*
X184750000Y-107750000D01*
X171969491Y-112119491D02*
X172750000Y-112900000D01*
X193450000Y-119850000D02*
X197000000Y-119850000D01*
X189700000Y-116100000D02*
X193450000Y-119850000D01*
X188000000Y-116100000D02*
X189700000Y-116100000D01*
X185000000Y-116100000D02*
X188000000Y-116100000D01*
X184950000Y-116050000D02*
X185000000Y-116100000D01*
X197000000Y-119850000D02*
X197000000Y-119800000D01*
D27*
G36*
X150014838Y-119885167D02*
X150156883Y-120228943D01*
X150419673Y-120492192D01*
X150763201Y-120634838D01*
X151135167Y-120635162D01*
X151478943Y-120493117D01*
X151562205Y-120410000D01*
X157815198Y-120410000D01*
X157712599Y-120512599D01*
X157547852Y-120759161D01*
X157490000Y-121050000D01*
X157490000Y-121462721D01*
X157298559Y-121585910D01*
X157153569Y-121798110D01*
X157102560Y-122050000D01*
X157102560Y-123350000D01*
X157146838Y-123585317D01*
X157285910Y-123801441D01*
X157498110Y-123946431D01*
X157750000Y-123997440D01*
X158750000Y-123997440D01*
X158985317Y-123953162D01*
X158996979Y-123945658D01*
X158998110Y-123946431D01*
X159250000Y-123997440D01*
X160250000Y-123997440D01*
X160485317Y-123953162D01*
X160496979Y-123945658D01*
X160498110Y-123946431D01*
X160750000Y-123997440D01*
X161750000Y-123997440D01*
X161985317Y-123953162D01*
X161996979Y-123945658D01*
X161998110Y-123946431D01*
X162250000Y-123997440D01*
X163250000Y-123997440D01*
X163485317Y-123953162D01*
X163496979Y-123945658D01*
X163498110Y-123946431D01*
X163750000Y-123997440D01*
X164750000Y-123997440D01*
X164985317Y-123953162D01*
X164996979Y-123945658D01*
X164998110Y-123946431D01*
X165250000Y-123997440D01*
X166250000Y-123997440D01*
X166485317Y-123953162D01*
X166701441Y-123814090D01*
X166846431Y-123601890D01*
X166875164Y-123460000D01*
X172850000Y-123460000D01*
X173140839Y-123402148D01*
X173387401Y-123237401D01*
X173387439Y-123237363D01*
X173449664Y-123225654D01*
X173425756Y-123335868D01*
X173454946Y-123491001D01*
X173454946Y-123624649D01*
X173536659Y-123706362D01*
X173557102Y-123714830D01*
X173615325Y-123802621D01*
X174004233Y-124191529D01*
X174201936Y-124326614D01*
X174453098Y-124381098D01*
X174705669Y-124333574D01*
X174781622Y-124283202D01*
X175015000Y-124516579D01*
X175015000Y-125152560D01*
X174050000Y-125152560D01*
X173814683Y-125196838D01*
X173803021Y-125204342D01*
X173801890Y-125203569D01*
X173550000Y-125152560D01*
X172550000Y-125152560D01*
X172314683Y-125196838D01*
X172303021Y-125204342D01*
X172301890Y-125203569D01*
X172050000Y-125152560D01*
X171050000Y-125152560D01*
X170814683Y-125196838D01*
X170803021Y-125204342D01*
X170801890Y-125203569D01*
X170550000Y-125152560D01*
X169550000Y-125152560D01*
X169314683Y-125196838D01*
X169098559Y-125335910D01*
X168953569Y-125548110D01*
X168902560Y-125800000D01*
X168902560Y-127100000D01*
X168946838Y-127335317D01*
X169085910Y-127551441D01*
X169298110Y-127696431D01*
X169550000Y-127747440D01*
X170550000Y-127747440D01*
X170785317Y-127703162D01*
X170796979Y-127695658D01*
X170798110Y-127696431D01*
X171050000Y-127747440D01*
X172050000Y-127747440D01*
X172285317Y-127703162D01*
X172296979Y-127695658D01*
X172298110Y-127696431D01*
X172550000Y-127747440D01*
X173550000Y-127747440D01*
X173785317Y-127703162D01*
X173796979Y-127695658D01*
X173798110Y-127696431D01*
X174050000Y-127747440D01*
X175050000Y-127747440D01*
X175285317Y-127703162D01*
X175296979Y-127695658D01*
X175298110Y-127696431D01*
X175550000Y-127747440D01*
X176550000Y-127747440D01*
X176785317Y-127703162D01*
X177001441Y-127564090D01*
X177146431Y-127351890D01*
X177197440Y-127100000D01*
X177197440Y-125800000D01*
X177153162Y-125564683D01*
X177014090Y-125348559D01*
X176801890Y-125203569D01*
X176785000Y-125200149D01*
X176785000Y-124456822D01*
X176834838Y-124336799D01*
X176835162Y-123964833D01*
X176822283Y-123933663D01*
X177080149Y-124191529D01*
X177277852Y-124326614D01*
X177500003Y-124374805D01*
X179862599Y-126737401D01*
X180109161Y-126902148D01*
X180400000Y-126960000D01*
X184535750Y-126960000D01*
X184648750Y-127073000D01*
X185623000Y-127073000D01*
X185623000Y-127053000D01*
X185877000Y-127053000D01*
X185877000Y-127073000D01*
X186851250Y-127073000D01*
X186964250Y-126960000D01*
X187215000Y-126960000D01*
X187215000Y-127264250D01*
X187373750Y-127423000D01*
X188073000Y-127423000D01*
X188073000Y-127403000D01*
X188327000Y-127403000D01*
X188327000Y-127423000D01*
X188347000Y-127423000D01*
X188347000Y-127677000D01*
X188327000Y-127677000D01*
X188327000Y-128676250D01*
X188485750Y-128835000D01*
X188676309Y-128835000D01*
X188909698Y-128738327D01*
X189088327Y-128559699D01*
X189144654Y-128423713D01*
X189146838Y-128435317D01*
X189285910Y-128651441D01*
X189498110Y-128796431D01*
X189750000Y-128847440D01*
X190145861Y-128847440D01*
X190324208Y-129025787D01*
X190324210Y-129025790D01*
X190478590Y-129128943D01*
X190611326Y-129217634D01*
X190950000Y-129285001D01*
X190950005Y-129285000D01*
X191580221Y-129285000D01*
X191709946Y-129479147D01*
X191726189Y-129490000D01*
X187022440Y-129490000D01*
X187022440Y-128700000D01*
X186978162Y-128464683D01*
X186839090Y-128248559D01*
X186770994Y-128202031D01*
X186913327Y-128059698D01*
X187006089Y-127835750D01*
X187215000Y-127835750D01*
X187215000Y-128326310D01*
X187311673Y-128559699D01*
X187490302Y-128738327D01*
X187723691Y-128835000D01*
X187914250Y-128835000D01*
X188073000Y-128676250D01*
X188073000Y-127677000D01*
X187373750Y-127677000D01*
X187215000Y-127835750D01*
X187006089Y-127835750D01*
X187010000Y-127826309D01*
X187010000Y-127485750D01*
X186851250Y-127327000D01*
X185877000Y-127327000D01*
X185877000Y-127347000D01*
X185623000Y-127347000D01*
X185623000Y-127327000D01*
X184648750Y-127327000D01*
X184490000Y-127485750D01*
X184490000Y-127826309D01*
X184586673Y-128059698D01*
X184727910Y-128200936D01*
X184673559Y-128235910D01*
X184528569Y-128448110D01*
X184477560Y-128700000D01*
X184477560Y-129490000D01*
X163410000Y-129490000D01*
X163410000Y-126050000D01*
X163355954Y-125778295D01*
X163202046Y-125547954D01*
X162971705Y-125394046D01*
X162700000Y-125340000D01*
X144300000Y-125340000D01*
X144028295Y-125394046D01*
X143991739Y-125418472D01*
X143771337Y-124885057D01*
X142819952Y-123932010D01*
X141576272Y-123415589D01*
X140925930Y-123415022D01*
X140978943Y-123393117D01*
X141242192Y-123130327D01*
X141384838Y-122786799D01*
X141384948Y-122660000D01*
X145862559Y-122660000D01*
X146163201Y-122784838D01*
X146535167Y-122785162D01*
X146702560Y-122715997D01*
X146702560Y-123350000D01*
X146746838Y-123585317D01*
X146885910Y-123801441D01*
X147098110Y-123946431D01*
X147350000Y-123997440D01*
X148350000Y-123997440D01*
X148585317Y-123953162D01*
X148596979Y-123945658D01*
X148598110Y-123946431D01*
X148850000Y-123997440D01*
X149850000Y-123997440D01*
X150085317Y-123953162D01*
X150096979Y-123945658D01*
X150098110Y-123946431D01*
X150350000Y-123997440D01*
X151350000Y-123997440D01*
X151585317Y-123953162D01*
X151609406Y-123937661D01*
X151723691Y-123985000D01*
X152064250Y-123985000D01*
X152223000Y-123826250D01*
X152223000Y-122827000D01*
X152477000Y-122827000D01*
X152477000Y-123826250D01*
X152635750Y-123985000D01*
X152976309Y-123985000D01*
X153209698Y-123888327D01*
X153388327Y-123709699D01*
X153485000Y-123476310D01*
X153485000Y-122985750D01*
X153326250Y-122827000D01*
X152477000Y-122827000D01*
X152223000Y-122827000D01*
X152203000Y-122827000D01*
X152203000Y-122573000D01*
X152223000Y-122573000D01*
X152223000Y-121573750D01*
X152477000Y-121573750D01*
X152477000Y-122573000D01*
X153326250Y-122573000D01*
X153485000Y-122414250D01*
X153485000Y-121923690D01*
X153388327Y-121690301D01*
X153209698Y-121511673D01*
X152976309Y-121415000D01*
X152635750Y-121415000D01*
X152477000Y-121573750D01*
X152223000Y-121573750D01*
X152064250Y-121415000D01*
X151723691Y-121415000D01*
X151612717Y-121460967D01*
X151601890Y-121453569D01*
X151350000Y-121402560D01*
X150350000Y-121402560D01*
X150114683Y-121446838D01*
X150103021Y-121454342D01*
X150101890Y-121453569D01*
X149850000Y-121402560D01*
X148850000Y-121402560D01*
X148614683Y-121446838D01*
X148603021Y-121454342D01*
X148601890Y-121453569D01*
X148350000Y-121402560D01*
X147350000Y-121402560D01*
X147189288Y-121432800D01*
X147143117Y-121321057D01*
X146880327Y-121057808D01*
X146536799Y-120915162D01*
X146164833Y-120914838D01*
X145821057Y-121056883D01*
X145737795Y-121140000D01*
X144847440Y-121140000D01*
X144847440Y-119850000D01*
X144830505Y-119760000D01*
X150014947Y-119760000D01*
X150014838Y-119885167D01*
X150014838Y-119885167D01*
G37*
X150014838Y-119885167D02*
X150156883Y-120228943D01*
X150419673Y-120492192D01*
X150763201Y-120634838D01*
X151135167Y-120635162D01*
X151478943Y-120493117D01*
X151562205Y-120410000D01*
X157815198Y-120410000D01*
X157712599Y-120512599D01*
X157547852Y-120759161D01*
X157490000Y-121050000D01*
X157490000Y-121462721D01*
X157298559Y-121585910D01*
X157153569Y-121798110D01*
X157102560Y-122050000D01*
X157102560Y-123350000D01*
X157146838Y-123585317D01*
X157285910Y-123801441D01*
X157498110Y-123946431D01*
X157750000Y-123997440D01*
X158750000Y-123997440D01*
X158985317Y-123953162D01*
X158996979Y-123945658D01*
X158998110Y-123946431D01*
X159250000Y-123997440D01*
X160250000Y-123997440D01*
X160485317Y-123953162D01*
X160496979Y-123945658D01*
X160498110Y-123946431D01*
X160750000Y-123997440D01*
X161750000Y-123997440D01*
X161985317Y-123953162D01*
X161996979Y-123945658D01*
X161998110Y-123946431D01*
X162250000Y-123997440D01*
X163250000Y-123997440D01*
X163485317Y-123953162D01*
X163496979Y-123945658D01*
X163498110Y-123946431D01*
X163750000Y-123997440D01*
X164750000Y-123997440D01*
X164985317Y-123953162D01*
X164996979Y-123945658D01*
X164998110Y-123946431D01*
X165250000Y-123997440D01*
X166250000Y-123997440D01*
X166485317Y-123953162D01*
X166701441Y-123814090D01*
X166846431Y-123601890D01*
X166875164Y-123460000D01*
X172850000Y-123460000D01*
X173140839Y-123402148D01*
X173387401Y-123237401D01*
X173387439Y-123237363D01*
X173449664Y-123225654D01*
X173425756Y-123335868D01*
X173454946Y-123491001D01*
X173454946Y-123624649D01*
X173536659Y-123706362D01*
X173557102Y-123714830D01*
X173615325Y-123802621D01*
X174004233Y-124191529D01*
X174201936Y-124326614D01*
X174453098Y-124381098D01*
X174705669Y-124333574D01*
X174781622Y-124283202D01*
X175015000Y-124516579D01*
X175015000Y-125152560D01*
X174050000Y-125152560D01*
X173814683Y-125196838D01*
X173803021Y-125204342D01*
X173801890Y-125203569D01*
X173550000Y-125152560D01*
X172550000Y-125152560D01*
X172314683Y-125196838D01*
X172303021Y-125204342D01*
X172301890Y-125203569D01*
X172050000Y-125152560D01*
X171050000Y-125152560D01*
X170814683Y-125196838D01*
X170803021Y-125204342D01*
X170801890Y-125203569D01*
X170550000Y-125152560D01*
X169550000Y-125152560D01*
X169314683Y-125196838D01*
X169098559Y-125335910D01*
X168953569Y-125548110D01*
X168902560Y-125800000D01*
X168902560Y-127100000D01*
X168946838Y-127335317D01*
X169085910Y-127551441D01*
X169298110Y-127696431D01*
X169550000Y-127747440D01*
X170550000Y-127747440D01*
X170785317Y-127703162D01*
X170796979Y-127695658D01*
X170798110Y-127696431D01*
X171050000Y-127747440D01*
X172050000Y-127747440D01*
X172285317Y-127703162D01*
X172296979Y-127695658D01*
X172298110Y-127696431D01*
X172550000Y-127747440D01*
X173550000Y-127747440D01*
X173785317Y-127703162D01*
X173796979Y-127695658D01*
X173798110Y-127696431D01*
X174050000Y-127747440D01*
X175050000Y-127747440D01*
X175285317Y-127703162D01*
X175296979Y-127695658D01*
X175298110Y-127696431D01*
X175550000Y-127747440D01*
X176550000Y-127747440D01*
X176785317Y-127703162D01*
X177001441Y-127564090D01*
X177146431Y-127351890D01*
X177197440Y-127100000D01*
X177197440Y-125800000D01*
X177153162Y-125564683D01*
X177014090Y-125348559D01*
X176801890Y-125203569D01*
X176785000Y-125200149D01*
X176785000Y-124456822D01*
X176834838Y-124336799D01*
X176835162Y-123964833D01*
X176822283Y-123933663D01*
X177080149Y-124191529D01*
X177277852Y-124326614D01*
X177500003Y-124374805D01*
X179862599Y-126737401D01*
X180109161Y-126902148D01*
X180400000Y-126960000D01*
X184535750Y-126960000D01*
X184648750Y-127073000D01*
X185623000Y-127073000D01*
X185623000Y-127053000D01*
X185877000Y-127053000D01*
X185877000Y-127073000D01*
X186851250Y-127073000D01*
X186964250Y-126960000D01*
X187215000Y-126960000D01*
X187215000Y-127264250D01*
X187373750Y-127423000D01*
X188073000Y-127423000D01*
X188073000Y-127403000D01*
X188327000Y-127403000D01*
X188327000Y-127423000D01*
X188347000Y-127423000D01*
X188347000Y-127677000D01*
X188327000Y-127677000D01*
X188327000Y-128676250D01*
X188485750Y-128835000D01*
X188676309Y-128835000D01*
X188909698Y-128738327D01*
X189088327Y-128559699D01*
X189144654Y-128423713D01*
X189146838Y-128435317D01*
X189285910Y-128651441D01*
X189498110Y-128796431D01*
X189750000Y-128847440D01*
X190145861Y-128847440D01*
X190324208Y-129025787D01*
X190324210Y-129025790D01*
X190478590Y-129128943D01*
X190611326Y-129217634D01*
X190950000Y-129285001D01*
X190950005Y-129285000D01*
X191580221Y-129285000D01*
X191709946Y-129479147D01*
X191726189Y-129490000D01*
X187022440Y-129490000D01*
X187022440Y-128700000D01*
X186978162Y-128464683D01*
X186839090Y-128248559D01*
X186770994Y-128202031D01*
X186913327Y-128059698D01*
X187006089Y-127835750D01*
X187215000Y-127835750D01*
X187215000Y-128326310D01*
X187311673Y-128559699D01*
X187490302Y-128738327D01*
X187723691Y-128835000D01*
X187914250Y-128835000D01*
X188073000Y-128676250D01*
X188073000Y-127677000D01*
X187373750Y-127677000D01*
X187215000Y-127835750D01*
X187006089Y-127835750D01*
X187010000Y-127826309D01*
X187010000Y-127485750D01*
X186851250Y-127327000D01*
X185877000Y-127327000D01*
X185877000Y-127347000D01*
X185623000Y-127347000D01*
X185623000Y-127327000D01*
X184648750Y-127327000D01*
X184490000Y-127485750D01*
X184490000Y-127826309D01*
X184586673Y-128059698D01*
X184727910Y-128200936D01*
X184673559Y-128235910D01*
X184528569Y-128448110D01*
X184477560Y-128700000D01*
X184477560Y-129490000D01*
X163410000Y-129490000D01*
X163410000Y-126050000D01*
X163355954Y-125778295D01*
X163202046Y-125547954D01*
X162971705Y-125394046D01*
X162700000Y-125340000D01*
X144300000Y-125340000D01*
X144028295Y-125394046D01*
X143991739Y-125418472D01*
X143771337Y-124885057D01*
X142819952Y-123932010D01*
X141576272Y-123415589D01*
X140925930Y-123415022D01*
X140978943Y-123393117D01*
X141242192Y-123130327D01*
X141384838Y-122786799D01*
X141384948Y-122660000D01*
X145862559Y-122660000D01*
X146163201Y-122784838D01*
X146535167Y-122785162D01*
X146702560Y-122715997D01*
X146702560Y-123350000D01*
X146746838Y-123585317D01*
X146885910Y-123801441D01*
X147098110Y-123946431D01*
X147350000Y-123997440D01*
X148350000Y-123997440D01*
X148585317Y-123953162D01*
X148596979Y-123945658D01*
X148598110Y-123946431D01*
X148850000Y-123997440D01*
X149850000Y-123997440D01*
X150085317Y-123953162D01*
X150096979Y-123945658D01*
X150098110Y-123946431D01*
X150350000Y-123997440D01*
X151350000Y-123997440D01*
X151585317Y-123953162D01*
X151609406Y-123937661D01*
X151723691Y-123985000D01*
X152064250Y-123985000D01*
X152223000Y-123826250D01*
X152223000Y-122827000D01*
X152477000Y-122827000D01*
X152477000Y-123826250D01*
X152635750Y-123985000D01*
X152976309Y-123985000D01*
X153209698Y-123888327D01*
X153388327Y-123709699D01*
X153485000Y-123476310D01*
X153485000Y-122985750D01*
X153326250Y-122827000D01*
X152477000Y-122827000D01*
X152223000Y-122827000D01*
X152203000Y-122827000D01*
X152203000Y-122573000D01*
X152223000Y-122573000D01*
X152223000Y-121573750D01*
X152477000Y-121573750D01*
X152477000Y-122573000D01*
X153326250Y-122573000D01*
X153485000Y-122414250D01*
X153485000Y-121923690D01*
X153388327Y-121690301D01*
X153209698Y-121511673D01*
X152976309Y-121415000D01*
X152635750Y-121415000D01*
X152477000Y-121573750D01*
X152223000Y-121573750D01*
X152064250Y-121415000D01*
X151723691Y-121415000D01*
X151612717Y-121460967D01*
X151601890Y-121453569D01*
X151350000Y-121402560D01*
X150350000Y-121402560D01*
X150114683Y-121446838D01*
X150103021Y-121454342D01*
X150101890Y-121453569D01*
X149850000Y-121402560D01*
X148850000Y-121402560D01*
X148614683Y-121446838D01*
X148603021Y-121454342D01*
X148601890Y-121453569D01*
X148350000Y-121402560D01*
X147350000Y-121402560D01*
X147189288Y-121432800D01*
X147143117Y-121321057D01*
X146880327Y-121057808D01*
X146536799Y-120915162D01*
X146164833Y-120914838D01*
X145821057Y-121056883D01*
X145737795Y-121140000D01*
X144847440Y-121140000D01*
X144847440Y-119850000D01*
X144830505Y-119760000D01*
X150014947Y-119760000D01*
X150014838Y-119885167D01*
G36*
X218913253Y-123834374D02*
X218685057Y-123928663D01*
X217732010Y-124880048D01*
X217215589Y-126123728D01*
X217214414Y-127470364D01*
X217728663Y-128714943D01*
X218502368Y-129490000D01*
X196748839Y-129490000D01*
X196797440Y-129250000D01*
X196797440Y-127550000D01*
X196753162Y-127314683D01*
X196614090Y-127098559D01*
X196401890Y-126953569D01*
X196150000Y-126902560D01*
X194450000Y-126902560D01*
X194214683Y-126946838D01*
X193998559Y-127085910D01*
X193853569Y-127298110D01*
X193839914Y-127365541D01*
X193810054Y-127320853D01*
X193328285Y-126998946D01*
X192760000Y-126885907D01*
X192191715Y-126998946D01*
X191709946Y-127320853D01*
X191580221Y-127515000D01*
X191316579Y-127515000D01*
X191097440Y-127295860D01*
X191097440Y-126900000D01*
X191053162Y-126664683D01*
X190914090Y-126448559D01*
X190743085Y-126331717D01*
X190887401Y-126187401D01*
X191037961Y-125962073D01*
X191085317Y-125953162D01*
X191301441Y-125814090D01*
X191446431Y-125601890D01*
X191497440Y-125350000D01*
X191497440Y-124335000D01*
X194402560Y-124335000D01*
X194402560Y-125350000D01*
X194446838Y-125585317D01*
X194585910Y-125801441D01*
X194798110Y-125946431D01*
X195050000Y-125997440D01*
X196050000Y-125997440D01*
X196285317Y-125953162D01*
X196296979Y-125945658D01*
X196298110Y-125946431D01*
X196550000Y-125997440D01*
X197550000Y-125997440D01*
X197785317Y-125953162D01*
X198001441Y-125814090D01*
X198146431Y-125601890D01*
X198197440Y-125350000D01*
X198197440Y-124335000D01*
X201102560Y-124335000D01*
X201102560Y-125350000D01*
X201146838Y-125585317D01*
X201285910Y-125801441D01*
X201498110Y-125946431D01*
X201750000Y-125997440D01*
X202750000Y-125997440D01*
X202985317Y-125953162D01*
X202996979Y-125945658D01*
X202998110Y-125946431D01*
X203250000Y-125997440D01*
X204250000Y-125997440D01*
X204485317Y-125953162D01*
X204701441Y-125814090D01*
X204846431Y-125601890D01*
X204852042Y-125574181D01*
X205069673Y-125792192D01*
X205413201Y-125934838D01*
X205785167Y-125935162D01*
X206128943Y-125793117D01*
X206392192Y-125530327D01*
X206534838Y-125186799D01*
X206535162Y-124814833D01*
X206393117Y-124471057D01*
X206360000Y-124437882D01*
X206360000Y-124300000D01*
X206302148Y-124009161D01*
X206180091Y-123826490D01*
X218913253Y-123834374D01*
X218913253Y-123834374D01*
G37*
X218913253Y-123834374D02*
X218685057Y-123928663D01*
X217732010Y-124880048D01*
X217215589Y-126123728D01*
X217214414Y-127470364D01*
X217728663Y-128714943D01*
X218502368Y-129490000D01*
X196748839Y-129490000D01*
X196797440Y-129250000D01*
X196797440Y-127550000D01*
X196753162Y-127314683D01*
X196614090Y-127098559D01*
X196401890Y-126953569D01*
X196150000Y-126902560D01*
X194450000Y-126902560D01*
X194214683Y-126946838D01*
X193998559Y-127085910D01*
X193853569Y-127298110D01*
X193839914Y-127365541D01*
X193810054Y-127320853D01*
X193328285Y-126998946D01*
X192760000Y-126885907D01*
X192191715Y-126998946D01*
X191709946Y-127320853D01*
X191580221Y-127515000D01*
X191316579Y-127515000D01*
X191097440Y-127295860D01*
X191097440Y-126900000D01*
X191053162Y-126664683D01*
X190914090Y-126448559D01*
X190743085Y-126331717D01*
X190887401Y-126187401D01*
X191037961Y-125962073D01*
X191085317Y-125953162D01*
X191301441Y-125814090D01*
X191446431Y-125601890D01*
X191497440Y-125350000D01*
X191497440Y-124335000D01*
X194402560Y-124335000D01*
X194402560Y-125350000D01*
X194446838Y-125585317D01*
X194585910Y-125801441D01*
X194798110Y-125946431D01*
X195050000Y-125997440D01*
X196050000Y-125997440D01*
X196285317Y-125953162D01*
X196296979Y-125945658D01*
X196298110Y-125946431D01*
X196550000Y-125997440D01*
X197550000Y-125997440D01*
X197785317Y-125953162D01*
X198001441Y-125814090D01*
X198146431Y-125601890D01*
X198197440Y-125350000D01*
X198197440Y-124335000D01*
X201102560Y-124335000D01*
X201102560Y-125350000D01*
X201146838Y-125585317D01*
X201285910Y-125801441D01*
X201498110Y-125946431D01*
X201750000Y-125997440D01*
X202750000Y-125997440D01*
X202985317Y-125953162D01*
X202996979Y-125945658D01*
X202998110Y-125946431D01*
X203250000Y-125997440D01*
X204250000Y-125997440D01*
X204485317Y-125953162D01*
X204701441Y-125814090D01*
X204846431Y-125601890D01*
X204852042Y-125574181D01*
X205069673Y-125792192D01*
X205413201Y-125934838D01*
X205785167Y-125935162D01*
X206128943Y-125793117D01*
X206392192Y-125530327D01*
X206534838Y-125186799D01*
X206535162Y-124814833D01*
X206393117Y-124471057D01*
X206360000Y-124437882D01*
X206360000Y-124300000D01*
X206302148Y-124009161D01*
X206180091Y-123826490D01*
X218913253Y-123834374D01*
G36*
X139919673Y-123392192D02*
X140101096Y-123467526D01*
X138985057Y-123928663D01*
X138032010Y-124880048D01*
X137515589Y-126123728D01*
X137514414Y-127470364D01*
X138028663Y-128714943D01*
X138802368Y-129490000D01*
X110344468Y-129490000D01*
X110578943Y-129393117D01*
X110842192Y-129130327D01*
X110984838Y-128786799D01*
X110985162Y-128414833D01*
X110856652Y-128103815D01*
X110958500Y-128124440D01*
X111491500Y-128124440D01*
X111726817Y-128080162D01*
X111860532Y-127994119D01*
X111976610Y-128073431D01*
X112228500Y-128124440D01*
X112761500Y-128124440D01*
X112996817Y-128080162D01*
X113130532Y-127994119D01*
X113246610Y-128073431D01*
X113498500Y-128124440D01*
X114031500Y-128124440D01*
X114266817Y-128080162D01*
X114400532Y-127994119D01*
X114516610Y-128073431D01*
X114768500Y-128124440D01*
X115301500Y-128124440D01*
X115536817Y-128080162D01*
X115752941Y-127941090D01*
X115897931Y-127728890D01*
X115948940Y-127477000D01*
X115948940Y-127246500D01*
X134974061Y-127246500D01*
X135019673Y-127292192D01*
X135363201Y-127434838D01*
X135735167Y-127435162D01*
X136078943Y-127293117D01*
X136342192Y-127030327D01*
X136484838Y-126686799D01*
X136485162Y-126314833D01*
X136343117Y-125971057D01*
X136226910Y-125854647D01*
X136490839Y-125802148D01*
X136737401Y-125637401D01*
X139014802Y-123360000D01*
X139887537Y-123360000D01*
X139919673Y-123392192D01*
X139919673Y-123392192D01*
G37*
X139919673Y-123392192D02*
X140101096Y-123467526D01*
X138985057Y-123928663D01*
X138032010Y-124880048D01*
X137515589Y-126123728D01*
X137514414Y-127470364D01*
X138028663Y-128714943D01*
X138802368Y-129490000D01*
X110344468Y-129490000D01*
X110578943Y-129393117D01*
X110842192Y-129130327D01*
X110984838Y-128786799D01*
X110985162Y-128414833D01*
X110856652Y-128103815D01*
X110958500Y-128124440D01*
X111491500Y-128124440D01*
X111726817Y-128080162D01*
X111860532Y-127994119D01*
X111976610Y-128073431D01*
X112228500Y-128124440D01*
X112761500Y-128124440D01*
X112996817Y-128080162D01*
X113130532Y-127994119D01*
X113246610Y-128073431D01*
X113498500Y-128124440D01*
X114031500Y-128124440D01*
X114266817Y-128080162D01*
X114400532Y-127994119D01*
X114516610Y-128073431D01*
X114768500Y-128124440D01*
X115301500Y-128124440D01*
X115536817Y-128080162D01*
X115752941Y-127941090D01*
X115897931Y-127728890D01*
X115948940Y-127477000D01*
X115948940Y-127246500D01*
X134974061Y-127246500D01*
X135019673Y-127292192D01*
X135363201Y-127434838D01*
X135735167Y-127435162D01*
X136078943Y-127293117D01*
X136342192Y-127030327D01*
X136484838Y-126686799D01*
X136485162Y-126314833D01*
X136343117Y-125971057D01*
X136226910Y-125854647D01*
X136490839Y-125802148D01*
X136737401Y-125637401D01*
X139014802Y-123360000D01*
X139887537Y-123360000D01*
X139919673Y-123392192D01*
G36*
X108147599Y-128172401D02*
X109112599Y-129137401D01*
X109359161Y-129302148D01*
X109447284Y-129319677D01*
X109519673Y-129392192D01*
X109755220Y-129490000D01*
X107798263Y-129490000D01*
X107835000Y-129401310D01*
X107835000Y-128935750D01*
X107676250Y-128777000D01*
X106827000Y-128777000D01*
X106827000Y-128797000D01*
X106573000Y-128797000D01*
X106573000Y-128777000D01*
X106553000Y-128777000D01*
X106553000Y-128523000D01*
X106573000Y-128523000D01*
X106573000Y-128503000D01*
X106827000Y-128503000D01*
X106827000Y-128523000D01*
X107676250Y-128523000D01*
X107835000Y-128364250D01*
X107835000Y-128100738D01*
X108041199Y-128015327D01*
X108042066Y-128014460D01*
X108147599Y-128172401D01*
X108147599Y-128172401D01*
G37*
X108147599Y-128172401D02*
X109112599Y-129137401D01*
X109359161Y-129302148D01*
X109447284Y-129319677D01*
X109519673Y-129392192D01*
X109755220Y-129490000D01*
X107798263Y-129490000D01*
X107835000Y-129401310D01*
X107835000Y-128935750D01*
X107676250Y-128777000D01*
X106827000Y-128777000D01*
X106827000Y-128797000D01*
X106573000Y-128797000D01*
X106573000Y-128777000D01*
X106553000Y-128777000D01*
X106553000Y-128523000D01*
X106573000Y-128523000D01*
X106573000Y-128503000D01*
X106827000Y-128503000D01*
X106827000Y-128523000D01*
X107676250Y-128523000D01*
X107835000Y-128364250D01*
X107835000Y-128100738D01*
X108041199Y-128015327D01*
X108042066Y-128014460D01*
X108147599Y-128172401D01*
G36*
X107542000Y-126359500D02*
X107562000Y-126359500D01*
X107562000Y-126613500D01*
X107542000Y-126613500D01*
X107542000Y-126633500D01*
X107288000Y-126633500D01*
X107288000Y-126613500D01*
X107268000Y-126613500D01*
X107268000Y-126359500D01*
X107288000Y-126359500D01*
X107288000Y-126339500D01*
X107542000Y-126339500D01*
X107542000Y-126359500D01*
X107542000Y-126359500D01*
G37*
X107542000Y-126359500D02*
X107562000Y-126359500D01*
X107562000Y-126613500D01*
X107542000Y-126613500D01*
X107542000Y-126633500D01*
X107288000Y-126633500D01*
X107288000Y-126613500D01*
X107268000Y-126613500D01*
X107268000Y-126359500D01*
X107288000Y-126359500D01*
X107288000Y-126339500D01*
X107542000Y-126339500D01*
X107542000Y-126359500D01*
G36*
X227535318Y-120707777D02*
X227569673Y-120742192D01*
X227913201Y-120884838D01*
X228285167Y-120885162D01*
X228408134Y-120834353D01*
X238064900Y-120814023D01*
X238064838Y-120885167D01*
X238205424Y-121225413D01*
X238065162Y-121563201D01*
X238064838Y-121935167D01*
X238185417Y-122226992D01*
X237871057Y-122356883D01*
X237825759Y-122402102D01*
X237736799Y-122365162D01*
X237364833Y-122364838D01*
X237021057Y-122506883D01*
X236757808Y-122769673D01*
X236615162Y-123113201D01*
X236614957Y-123348560D01*
X236248500Y-123348560D01*
X236013183Y-123392838D01*
X235797059Y-123531910D01*
X235652069Y-123744110D01*
X235601060Y-123996000D01*
X235601060Y-125340000D01*
X223975000Y-125340000D01*
X223703295Y-125394046D01*
X223686330Y-125405381D01*
X223471337Y-124885057D01*
X222519952Y-123932010D01*
X221276272Y-123415589D01*
X220659751Y-123415051D01*
X221614802Y-122460000D01*
X223300000Y-122460000D01*
X223590839Y-122402148D01*
X223837401Y-122237401D01*
X224277362Y-121797440D01*
X224350000Y-121797440D01*
X224585317Y-121753162D01*
X224801441Y-121614090D01*
X224946431Y-121401890D01*
X224997440Y-121150000D01*
X224997440Y-119972369D01*
X227535318Y-120707777D01*
X227535318Y-120707777D01*
G37*
X227535318Y-120707777D02*
X227569673Y-120742192D01*
X227913201Y-120884838D01*
X228285167Y-120885162D01*
X228408134Y-120834353D01*
X238064900Y-120814023D01*
X238064838Y-120885167D01*
X238205424Y-121225413D01*
X238065162Y-121563201D01*
X238064838Y-121935167D01*
X238185417Y-122226992D01*
X237871057Y-122356883D01*
X237825759Y-122402102D01*
X237736799Y-122365162D01*
X237364833Y-122364838D01*
X237021057Y-122506883D01*
X236757808Y-122769673D01*
X236615162Y-123113201D01*
X236614957Y-123348560D01*
X236248500Y-123348560D01*
X236013183Y-123392838D01*
X235797059Y-123531910D01*
X235652069Y-123744110D01*
X235601060Y-123996000D01*
X235601060Y-125340000D01*
X223975000Y-125340000D01*
X223703295Y-125394046D01*
X223686330Y-125405381D01*
X223471337Y-124885057D01*
X222519952Y-123932010D01*
X221276272Y-123415589D01*
X220659751Y-123415051D01*
X221614802Y-122460000D01*
X223300000Y-122460000D01*
X223590839Y-122402148D01*
X223837401Y-122237401D01*
X224277362Y-121797440D01*
X224350000Y-121797440D01*
X224585317Y-121753162D01*
X224801441Y-121614090D01*
X224946431Y-121401890D01*
X224997440Y-121150000D01*
X224997440Y-119972369D01*
X227535318Y-120707777D01*
G36*
X244645000Y-123397870D02*
X244401500Y-123348560D01*
X243868500Y-123348560D01*
X243633183Y-123392838D01*
X243507341Y-123473815D01*
X243491199Y-123457673D01*
X243257810Y-123361000D01*
X243150750Y-123361000D01*
X242992000Y-123519750D01*
X242992000Y-124859500D01*
X243012000Y-124859500D01*
X243012000Y-125113500D01*
X242992000Y-125113500D01*
X242992000Y-125133500D01*
X242738000Y-125133500D01*
X242738000Y-125113500D01*
X242718000Y-125113500D01*
X242718000Y-124859500D01*
X242738000Y-124859500D01*
X242738000Y-123519750D01*
X242579250Y-123361000D01*
X242472190Y-123361000D01*
X242355000Y-123409542D01*
X242355000Y-123195000D01*
X242334473Y-123091807D01*
X242325963Y-122986929D01*
X242305779Y-122947553D01*
X242297148Y-122904161D01*
X242238694Y-122816678D01*
X242190696Y-122723040D01*
X242156981Y-122694386D01*
X242132401Y-122657599D01*
X242044919Y-122599146D01*
X241964741Y-122531003D01*
X240041382Y-121460000D01*
X244645000Y-121460000D01*
X244645000Y-123397870D01*
X244645000Y-123397870D01*
G37*
X244645000Y-123397870D02*
X244401500Y-123348560D01*
X243868500Y-123348560D01*
X243633183Y-123392838D01*
X243507341Y-123473815D01*
X243491199Y-123457673D01*
X243257810Y-123361000D01*
X243150750Y-123361000D01*
X242992000Y-123519750D01*
X242992000Y-124859500D01*
X243012000Y-124859500D01*
X243012000Y-125113500D01*
X242992000Y-125113500D01*
X242992000Y-125133500D01*
X242738000Y-125133500D01*
X242738000Y-125113500D01*
X242718000Y-125113500D01*
X242718000Y-124859500D01*
X242738000Y-124859500D01*
X242738000Y-123519750D01*
X242579250Y-123361000D01*
X242472190Y-123361000D01*
X242355000Y-123409542D01*
X242355000Y-123195000D01*
X242334473Y-123091807D01*
X242325963Y-122986929D01*
X242305779Y-122947553D01*
X242297148Y-122904161D01*
X242238694Y-122816678D01*
X242190696Y-122723040D01*
X242156981Y-122694386D01*
X242132401Y-122657599D01*
X242044919Y-122599146D01*
X241964741Y-122531003D01*
X240041382Y-121460000D01*
X244645000Y-121460000D01*
X244645000Y-123397870D01*
G36*
X224830222Y-111712567D02*
X224472330Y-112248190D01*
X224346655Y-112880000D01*
X224472330Y-113511810D01*
X224830222Y-114047433D01*
X225365845Y-114405325D01*
X225997655Y-114531000D01*
X226062345Y-114531000D01*
X226515967Y-114440769D01*
X226928698Y-114853500D01*
X224075939Y-114853500D01*
X224030327Y-114807808D01*
X223686799Y-114665162D01*
X223314833Y-114664838D01*
X222971057Y-114806883D01*
X222707808Y-115069673D01*
X222565162Y-115413201D01*
X222564838Y-115785167D01*
X222706883Y-116128943D01*
X222969673Y-116392192D01*
X223313201Y-116534838D01*
X223685167Y-116535162D01*
X223831220Y-116474814D01*
X223956883Y-116778943D01*
X224219673Y-117042192D01*
X224563201Y-117184838D01*
X224935167Y-117185162D01*
X225278943Y-117043117D01*
X225312118Y-117010000D01*
X234935198Y-117010000D01*
X235512599Y-117587401D01*
X235759161Y-117752148D01*
X236050000Y-117810000D01*
X237300000Y-117810000D01*
X237590839Y-117752148D01*
X237837401Y-117587401D01*
X238201607Y-117223195D01*
X238286817Y-117207162D01*
X238420532Y-117121119D01*
X238536610Y-117200431D01*
X238773626Y-117248428D01*
X240112599Y-118587401D01*
X240359161Y-118752148D01*
X240650000Y-118810000D01*
X244337537Y-118810000D01*
X244369673Y-118842192D01*
X244713201Y-118984838D01*
X245085167Y-118985162D01*
X245428943Y-118843117D01*
X245692192Y-118580327D01*
X245834838Y-118236799D01*
X245834927Y-118135000D01*
X246249995Y-118135000D01*
X246250000Y-118135001D01*
X246532484Y-118078810D01*
X246588675Y-118067633D01*
X246875790Y-117875790D01*
X247300787Y-117450792D01*
X247300790Y-117450790D01*
X247463132Y-117207827D01*
X247678500Y-117251440D01*
X248211500Y-117251440D01*
X248446817Y-117207162D01*
X248580532Y-117121119D01*
X248696610Y-117200431D01*
X248948500Y-117251440D01*
X249481500Y-117251440D01*
X249716817Y-117207162D01*
X249850532Y-117121119D01*
X249966610Y-117200431D01*
X250218500Y-117251440D01*
X250751500Y-117251440D01*
X250986817Y-117207162D01*
X251202941Y-117068090D01*
X251240000Y-117013852D01*
X251240000Y-123582493D01*
X251215590Y-123544559D01*
X251003390Y-123399569D01*
X250751500Y-123348560D01*
X250218500Y-123348560D01*
X249983183Y-123392838D01*
X249849468Y-123478881D01*
X249733390Y-123399569D01*
X249481500Y-123348560D01*
X248948500Y-123348560D01*
X248713183Y-123392838D01*
X248579468Y-123478881D01*
X248463390Y-123399569D01*
X248211500Y-123348560D01*
X247678500Y-123348560D01*
X247443183Y-123392838D01*
X247309468Y-123478881D01*
X247193390Y-123399569D01*
X246941500Y-123348560D01*
X246408500Y-123348560D01*
X246173183Y-123392838D01*
X246165000Y-123398104D01*
X246165000Y-120955000D01*
X246163521Y-120947564D01*
X246164854Y-120940101D01*
X246159854Y-120685101D01*
X246129650Y-120547422D01*
X246102148Y-120409161D01*
X246097935Y-120402856D01*
X246096311Y-120395452D01*
X246015726Y-120279821D01*
X245937401Y-120162599D01*
X245931096Y-120158386D01*
X245926762Y-120152167D01*
X245808045Y-120076166D01*
X245690839Y-119997852D01*
X245683404Y-119996373D01*
X245677018Y-119992285D01*
X245538245Y-119967499D01*
X245400000Y-119940000D01*
X241035097Y-119940000D01*
X241035162Y-119864833D01*
X240893117Y-119521057D01*
X240630327Y-119257808D01*
X240388613Y-119157439D01*
X240313674Y-119107367D01*
X240312744Y-119107182D01*
X240311953Y-119106656D01*
X240143668Y-119073550D01*
X239975000Y-119039999D01*
X239974066Y-119040185D01*
X239973137Y-119040002D01*
X228405269Y-119064355D01*
X228286799Y-119015162D01*
X228052946Y-119014958D01*
X224264682Y-117917223D01*
X224230327Y-117882808D01*
X223886799Y-117740162D01*
X223514833Y-117739838D01*
X223171057Y-117881883D01*
X222907808Y-118144673D01*
X222765162Y-118488201D01*
X222764838Y-118860167D01*
X222906883Y-119203943D01*
X222919565Y-119216647D01*
X222850000Y-119202560D01*
X221850000Y-119202560D01*
X221614683Y-119246838D01*
X221603021Y-119254342D01*
X221601890Y-119253569D01*
X221350000Y-119202560D01*
X220369920Y-119202560D01*
X220392192Y-119180327D01*
X220534838Y-118836799D01*
X220535162Y-118464833D01*
X220393117Y-118121057D01*
X220130327Y-117857808D01*
X219835144Y-117735237D01*
X219835162Y-117714833D01*
X219693117Y-117371057D01*
X219430327Y-117107808D01*
X219086799Y-116965162D01*
X218714833Y-116964838D01*
X218371057Y-117106883D01*
X218137533Y-117340000D01*
X212635000Y-117340000D01*
X212635000Y-117185750D01*
X212476250Y-117027000D01*
X211627000Y-117027000D01*
X211627000Y-117047000D01*
X211373000Y-117047000D01*
X211373000Y-117027000D01*
X211353000Y-117027000D01*
X211353000Y-116773000D01*
X211373000Y-116773000D01*
X211373000Y-115127000D01*
X211627000Y-115127000D01*
X211627000Y-116773000D01*
X212476250Y-116773000D01*
X212635000Y-116614250D01*
X212635000Y-116285000D01*
X212764250Y-116285000D01*
X212923000Y-116126250D01*
X212923000Y-115127000D01*
X211627000Y-115127000D01*
X211373000Y-115127000D01*
X211353000Y-115127000D01*
X211353000Y-114873000D01*
X211373000Y-114873000D01*
X211373000Y-114853000D01*
X211627000Y-114853000D01*
X211627000Y-114873000D01*
X212923000Y-114873000D01*
X212923000Y-114853000D01*
X213177000Y-114853000D01*
X213177000Y-114873000D01*
X213197000Y-114873000D01*
X213197000Y-115127000D01*
X213177000Y-115127000D01*
X213177000Y-116126250D01*
X213335750Y-116285000D01*
X213526309Y-116285000D01*
X213759698Y-116188327D01*
X213938327Y-116009699D01*
X213994654Y-115873713D01*
X213996838Y-115885317D01*
X214135910Y-116101441D01*
X214348110Y-116246431D01*
X214600000Y-116297440D01*
X215300000Y-116297440D01*
X215535317Y-116253162D01*
X215751441Y-116114090D01*
X215896431Y-115901890D01*
X215947440Y-115650000D01*
X215947440Y-114350000D01*
X215942631Y-114324440D01*
X216441500Y-114324440D01*
X216676817Y-114280162D01*
X216810532Y-114194119D01*
X216926610Y-114273431D01*
X217178500Y-114324440D01*
X217711500Y-114324440D01*
X217946817Y-114280162D01*
X218080532Y-114194119D01*
X218196610Y-114273431D01*
X218448500Y-114324440D01*
X218981500Y-114324440D01*
X219216817Y-114280162D01*
X219350532Y-114194119D01*
X219466610Y-114273431D01*
X219509644Y-114282146D01*
X219519673Y-114292192D01*
X219863201Y-114434838D01*
X220235167Y-114435162D01*
X220578943Y-114293117D01*
X220842192Y-114030327D01*
X220984838Y-113686799D01*
X220985162Y-113314833D01*
X220898940Y-113106159D01*
X220898940Y-112235043D01*
X221035167Y-112235162D01*
X221378943Y-112093117D01*
X221642192Y-111830327D01*
X221784838Y-111486799D01*
X221784861Y-111460000D01*
X225208215Y-111460000D01*
X224830222Y-111712567D01*
X224830222Y-111712567D01*
G37*
X224830222Y-111712567D02*
X224472330Y-112248190D01*
X224346655Y-112880000D01*
X224472330Y-113511810D01*
X224830222Y-114047433D01*
X225365845Y-114405325D01*
X225997655Y-114531000D01*
X226062345Y-114531000D01*
X226515967Y-114440769D01*
X226928698Y-114853500D01*
X224075939Y-114853500D01*
X224030327Y-114807808D01*
X223686799Y-114665162D01*
X223314833Y-114664838D01*
X222971057Y-114806883D01*
X222707808Y-115069673D01*
X222565162Y-115413201D01*
X222564838Y-115785167D01*
X222706883Y-116128943D01*
X222969673Y-116392192D01*
X223313201Y-116534838D01*
X223685167Y-116535162D01*
X223831220Y-116474814D01*
X223956883Y-116778943D01*
X224219673Y-117042192D01*
X224563201Y-117184838D01*
X224935167Y-117185162D01*
X225278943Y-117043117D01*
X225312118Y-117010000D01*
X234935198Y-117010000D01*
X235512599Y-117587401D01*
X235759161Y-117752148D01*
X236050000Y-117810000D01*
X237300000Y-117810000D01*
X237590839Y-117752148D01*
X237837401Y-117587401D01*
X238201607Y-117223195D01*
X238286817Y-117207162D01*
X238420532Y-117121119D01*
X238536610Y-117200431D01*
X238773626Y-117248428D01*
X240112599Y-118587401D01*
X240359161Y-118752148D01*
X240650000Y-118810000D01*
X244337537Y-118810000D01*
X244369673Y-118842192D01*
X244713201Y-118984838D01*
X245085167Y-118985162D01*
X245428943Y-118843117D01*
X245692192Y-118580327D01*
X245834838Y-118236799D01*
X245834927Y-118135000D01*
X246249995Y-118135000D01*
X246250000Y-118135001D01*
X246532484Y-118078810D01*
X246588675Y-118067633D01*
X246875790Y-117875790D01*
X247300787Y-117450792D01*
X247300790Y-117450790D01*
X247463132Y-117207827D01*
X247678500Y-117251440D01*
X248211500Y-117251440D01*
X248446817Y-117207162D01*
X248580532Y-117121119D01*
X248696610Y-117200431D01*
X248948500Y-117251440D01*
X249481500Y-117251440D01*
X249716817Y-117207162D01*
X249850532Y-117121119D01*
X249966610Y-117200431D01*
X250218500Y-117251440D01*
X250751500Y-117251440D01*
X250986817Y-117207162D01*
X251202941Y-117068090D01*
X251240000Y-117013852D01*
X251240000Y-123582493D01*
X251215590Y-123544559D01*
X251003390Y-123399569D01*
X250751500Y-123348560D01*
X250218500Y-123348560D01*
X249983183Y-123392838D01*
X249849468Y-123478881D01*
X249733390Y-123399569D01*
X249481500Y-123348560D01*
X248948500Y-123348560D01*
X248713183Y-123392838D01*
X248579468Y-123478881D01*
X248463390Y-123399569D01*
X248211500Y-123348560D01*
X247678500Y-123348560D01*
X247443183Y-123392838D01*
X247309468Y-123478881D01*
X247193390Y-123399569D01*
X246941500Y-123348560D01*
X246408500Y-123348560D01*
X246173183Y-123392838D01*
X246165000Y-123398104D01*
X246165000Y-120955000D01*
X246163521Y-120947564D01*
X246164854Y-120940101D01*
X246159854Y-120685101D01*
X246129650Y-120547422D01*
X246102148Y-120409161D01*
X246097935Y-120402856D01*
X246096311Y-120395452D01*
X246015726Y-120279821D01*
X245937401Y-120162599D01*
X245931096Y-120158386D01*
X245926762Y-120152167D01*
X245808045Y-120076166D01*
X245690839Y-119997852D01*
X245683404Y-119996373D01*
X245677018Y-119992285D01*
X245538245Y-119967499D01*
X245400000Y-119940000D01*
X241035097Y-119940000D01*
X241035162Y-119864833D01*
X240893117Y-119521057D01*
X240630327Y-119257808D01*
X240388613Y-119157439D01*
X240313674Y-119107367D01*
X240312744Y-119107182D01*
X240311953Y-119106656D01*
X240143668Y-119073550D01*
X239975000Y-119039999D01*
X239974066Y-119040185D01*
X239973137Y-119040002D01*
X228405269Y-119064355D01*
X228286799Y-119015162D01*
X228052946Y-119014958D01*
X224264682Y-117917223D01*
X224230327Y-117882808D01*
X223886799Y-117740162D01*
X223514833Y-117739838D01*
X223171057Y-117881883D01*
X222907808Y-118144673D01*
X222765162Y-118488201D01*
X222764838Y-118860167D01*
X222906883Y-119203943D01*
X222919565Y-119216647D01*
X222850000Y-119202560D01*
X221850000Y-119202560D01*
X221614683Y-119246838D01*
X221603021Y-119254342D01*
X221601890Y-119253569D01*
X221350000Y-119202560D01*
X220369920Y-119202560D01*
X220392192Y-119180327D01*
X220534838Y-118836799D01*
X220535162Y-118464833D01*
X220393117Y-118121057D01*
X220130327Y-117857808D01*
X219835144Y-117735237D01*
X219835162Y-117714833D01*
X219693117Y-117371057D01*
X219430327Y-117107808D01*
X219086799Y-116965162D01*
X218714833Y-116964838D01*
X218371057Y-117106883D01*
X218137533Y-117340000D01*
X212635000Y-117340000D01*
X212635000Y-117185750D01*
X212476250Y-117027000D01*
X211627000Y-117027000D01*
X211627000Y-117047000D01*
X211373000Y-117047000D01*
X211373000Y-117027000D01*
X211353000Y-117027000D01*
X211353000Y-116773000D01*
X211373000Y-116773000D01*
X211373000Y-115127000D01*
X211627000Y-115127000D01*
X211627000Y-116773000D01*
X212476250Y-116773000D01*
X212635000Y-116614250D01*
X212635000Y-116285000D01*
X212764250Y-116285000D01*
X212923000Y-116126250D01*
X212923000Y-115127000D01*
X211627000Y-115127000D01*
X211373000Y-115127000D01*
X211353000Y-115127000D01*
X211353000Y-114873000D01*
X211373000Y-114873000D01*
X211373000Y-114853000D01*
X211627000Y-114853000D01*
X211627000Y-114873000D01*
X212923000Y-114873000D01*
X212923000Y-114853000D01*
X213177000Y-114853000D01*
X213177000Y-114873000D01*
X213197000Y-114873000D01*
X213197000Y-115127000D01*
X213177000Y-115127000D01*
X213177000Y-116126250D01*
X213335750Y-116285000D01*
X213526309Y-116285000D01*
X213759698Y-116188327D01*
X213938327Y-116009699D01*
X213994654Y-115873713D01*
X213996838Y-115885317D01*
X214135910Y-116101441D01*
X214348110Y-116246431D01*
X214600000Y-116297440D01*
X215300000Y-116297440D01*
X215535317Y-116253162D01*
X215751441Y-116114090D01*
X215896431Y-115901890D01*
X215947440Y-115650000D01*
X215947440Y-114350000D01*
X215942631Y-114324440D01*
X216441500Y-114324440D01*
X216676817Y-114280162D01*
X216810532Y-114194119D01*
X216926610Y-114273431D01*
X217178500Y-114324440D01*
X217711500Y-114324440D01*
X217946817Y-114280162D01*
X218080532Y-114194119D01*
X218196610Y-114273431D01*
X218448500Y-114324440D01*
X218981500Y-114324440D01*
X219216817Y-114280162D01*
X219350532Y-114194119D01*
X219466610Y-114273431D01*
X219509644Y-114282146D01*
X219519673Y-114292192D01*
X219863201Y-114434838D01*
X220235167Y-114435162D01*
X220578943Y-114293117D01*
X220842192Y-114030327D01*
X220984838Y-113686799D01*
X220985162Y-113314833D01*
X220898940Y-113106159D01*
X220898940Y-112235043D01*
X221035167Y-112235162D01*
X221378943Y-112093117D01*
X221642192Y-111830327D01*
X221784838Y-111486799D01*
X221784861Y-111460000D01*
X225208215Y-111460000D01*
X224830222Y-111712567D01*
G36*
X177624210Y-117774210D02*
X177624208Y-117774213D01*
X177298272Y-118100149D01*
X177178164Y-118149776D01*
X176914915Y-118412566D01*
X176772269Y-118756094D01*
X176771945Y-119128060D01*
X176913990Y-119471836D01*
X177176780Y-119735085D01*
X177520308Y-119877731D01*
X177892274Y-119878055D01*
X178236050Y-119736010D01*
X178499299Y-119473220D01*
X178549673Y-119351907D01*
X178616579Y-119285000D01*
X178949740Y-119285000D01*
X178847916Y-119386824D01*
X178773526Y-119495698D01*
X178671138Y-119563601D01*
X178282230Y-119952509D01*
X178207837Y-120061386D01*
X178105453Y-120129287D01*
X177716545Y-120518195D01*
X177642155Y-120627069D01*
X177539767Y-120694972D01*
X177150859Y-121083880D01*
X177076468Y-121192755D01*
X176974082Y-121260657D01*
X176585174Y-121649565D01*
X176510781Y-121758442D01*
X176408397Y-121826343D01*
X176019489Y-122215251D01*
X175999709Y-122244199D01*
X175980511Y-122215251D01*
X175591603Y-121826343D01*
X175502796Y-121765663D01*
X175495345Y-121747676D01*
X175413632Y-121665963D01*
X175277294Y-121665963D01*
X175142738Y-121636774D01*
X175014802Y-121660847D01*
X175038710Y-121550633D01*
X175009520Y-121395500D01*
X175009520Y-121261851D01*
X174927807Y-121180138D01*
X174907363Y-121171670D01*
X174849141Y-121083880D01*
X174460233Y-120694972D01*
X174351356Y-120620579D01*
X174283455Y-120518195D01*
X173894547Y-120129287D01*
X173785673Y-120054897D01*
X173717770Y-119952509D01*
X173328862Y-119563601D01*
X173219985Y-119489208D01*
X173152084Y-119386824D01*
X172763176Y-118997916D01*
X172654302Y-118923526D01*
X172586399Y-118821138D01*
X172197491Y-118432230D01*
X172088614Y-118357837D01*
X172020713Y-118255453D01*
X171631805Y-117866545D01*
X171522931Y-117792155D01*
X171465960Y-117706251D01*
X171562380Y-117610000D01*
X177869969Y-117610000D01*
X177624210Y-117774210D01*
X177624210Y-117774210D01*
G37*
X177624210Y-117774210D02*
X177624208Y-117774213D01*
X177298272Y-118100149D01*
X177178164Y-118149776D01*
X176914915Y-118412566D01*
X176772269Y-118756094D01*
X176771945Y-119128060D01*
X176913990Y-119471836D01*
X177176780Y-119735085D01*
X177520308Y-119877731D01*
X177892274Y-119878055D01*
X178236050Y-119736010D01*
X178499299Y-119473220D01*
X178549673Y-119351907D01*
X178616579Y-119285000D01*
X178949740Y-119285000D01*
X178847916Y-119386824D01*
X178773526Y-119495698D01*
X178671138Y-119563601D01*
X178282230Y-119952509D01*
X178207837Y-120061386D01*
X178105453Y-120129287D01*
X177716545Y-120518195D01*
X177642155Y-120627069D01*
X177539767Y-120694972D01*
X177150859Y-121083880D01*
X177076468Y-121192755D01*
X176974082Y-121260657D01*
X176585174Y-121649565D01*
X176510781Y-121758442D01*
X176408397Y-121826343D01*
X176019489Y-122215251D01*
X175999709Y-122244199D01*
X175980511Y-122215251D01*
X175591603Y-121826343D01*
X175502796Y-121765663D01*
X175495345Y-121747676D01*
X175413632Y-121665963D01*
X175277294Y-121665963D01*
X175142738Y-121636774D01*
X175014802Y-121660847D01*
X175038710Y-121550633D01*
X175009520Y-121395500D01*
X175009520Y-121261851D01*
X174927807Y-121180138D01*
X174907363Y-121171670D01*
X174849141Y-121083880D01*
X174460233Y-120694972D01*
X174351356Y-120620579D01*
X174283455Y-120518195D01*
X173894547Y-120129287D01*
X173785673Y-120054897D01*
X173717770Y-119952509D01*
X173328862Y-119563601D01*
X173219985Y-119489208D01*
X173152084Y-119386824D01*
X172763176Y-118997916D01*
X172654302Y-118923526D01*
X172586399Y-118821138D01*
X172197491Y-118432230D01*
X172088614Y-118357837D01*
X172020713Y-118255453D01*
X171631805Y-117866545D01*
X171522931Y-117792155D01*
X171465960Y-117706251D01*
X171562380Y-117610000D01*
X177869969Y-117610000D01*
X177624210Y-117774210D01*
G36*
X197162599Y-116537401D02*
X197409160Y-116702148D01*
X197700000Y-116760000D01*
X204485198Y-116760000D01*
X207062599Y-119337401D01*
X207309161Y-119502148D01*
X207600000Y-119560000D01*
X215279608Y-119560000D01*
X215253569Y-119598110D01*
X215202560Y-119850000D01*
X215202560Y-120740000D01*
X204735009Y-120740000D01*
X204735162Y-120564833D01*
X204593117Y-120221057D01*
X204330327Y-119957808D01*
X203986799Y-119815162D01*
X203614833Y-119814838D01*
X203271057Y-119956883D01*
X203237882Y-119990000D01*
X198297440Y-119990000D01*
X198297440Y-119450000D01*
X198253162Y-119214683D01*
X198114090Y-118998559D01*
X197901890Y-118853569D01*
X197868510Y-118846809D01*
X198009699Y-118788327D01*
X198188327Y-118609698D01*
X198285000Y-118376309D01*
X198285000Y-118185750D01*
X198126250Y-118027000D01*
X197127000Y-118027000D01*
X197127000Y-118047000D01*
X196873000Y-118047000D01*
X196873000Y-118027000D01*
X195873750Y-118027000D01*
X195715000Y-118185750D01*
X195715000Y-118376309D01*
X195811673Y-118609698D01*
X195990301Y-118788327D01*
X196126287Y-118844654D01*
X196114683Y-118846838D01*
X195898559Y-118985910D01*
X195827437Y-119090000D01*
X193764802Y-119090000D01*
X192098493Y-117423691D01*
X195715000Y-117423691D01*
X195715000Y-117614250D01*
X195873750Y-117773000D01*
X196873000Y-117773000D01*
X196873000Y-117073750D01*
X197127000Y-117073750D01*
X197127000Y-117773000D01*
X198126250Y-117773000D01*
X198285000Y-117614250D01*
X198285000Y-117423691D01*
X198188327Y-117190302D01*
X198009699Y-117011673D01*
X197776310Y-116915000D01*
X197285750Y-116915000D01*
X197127000Y-117073750D01*
X196873000Y-117073750D01*
X196714250Y-116915000D01*
X196223690Y-116915000D01*
X195990301Y-117011673D01*
X195811673Y-117190302D01*
X195715000Y-117423691D01*
X192098493Y-117423691D01*
X190237401Y-115562599D01*
X190233511Y-115560000D01*
X196185198Y-115560000D01*
X197162599Y-116537401D01*
X197162599Y-116537401D01*
G37*
X197162599Y-116537401D02*
X197409160Y-116702148D01*
X197700000Y-116760000D01*
X204485198Y-116760000D01*
X207062599Y-119337401D01*
X207309161Y-119502148D01*
X207600000Y-119560000D01*
X215279608Y-119560000D01*
X215253569Y-119598110D01*
X215202560Y-119850000D01*
X215202560Y-120740000D01*
X204735009Y-120740000D01*
X204735162Y-120564833D01*
X204593117Y-120221057D01*
X204330327Y-119957808D01*
X203986799Y-119815162D01*
X203614833Y-119814838D01*
X203271057Y-119956883D01*
X203237882Y-119990000D01*
X198297440Y-119990000D01*
X198297440Y-119450000D01*
X198253162Y-119214683D01*
X198114090Y-118998559D01*
X197901890Y-118853569D01*
X197868510Y-118846809D01*
X198009699Y-118788327D01*
X198188327Y-118609698D01*
X198285000Y-118376309D01*
X198285000Y-118185750D01*
X198126250Y-118027000D01*
X197127000Y-118027000D01*
X197127000Y-118047000D01*
X196873000Y-118047000D01*
X196873000Y-118027000D01*
X195873750Y-118027000D01*
X195715000Y-118185750D01*
X195715000Y-118376309D01*
X195811673Y-118609698D01*
X195990301Y-118788327D01*
X196126287Y-118844654D01*
X196114683Y-118846838D01*
X195898559Y-118985910D01*
X195827437Y-119090000D01*
X193764802Y-119090000D01*
X192098493Y-117423691D01*
X195715000Y-117423691D01*
X195715000Y-117614250D01*
X195873750Y-117773000D01*
X196873000Y-117773000D01*
X196873000Y-117073750D01*
X197127000Y-117073750D01*
X197127000Y-117773000D01*
X198126250Y-117773000D01*
X198285000Y-117614250D01*
X198285000Y-117423691D01*
X198188327Y-117190302D01*
X198009699Y-117011673D01*
X197776310Y-116915000D01*
X197285750Y-116915000D01*
X197127000Y-117073750D01*
X196873000Y-117073750D01*
X196714250Y-116915000D01*
X196223690Y-116915000D01*
X195990301Y-117011673D01*
X195811673Y-117190302D01*
X195715000Y-117423691D01*
X192098493Y-117423691D01*
X190237401Y-115562599D01*
X190233511Y-115560000D01*
X196185198Y-115560000D01*
X197162599Y-116537401D01*
G36*
X183365000Y-119360198D02*
X182835198Y-119890000D01*
X182297296Y-119890000D01*
X182344473Y-119842823D01*
X182405154Y-119754014D01*
X182423139Y-119746564D01*
X182504852Y-119664851D01*
X182504852Y-119528519D01*
X182534042Y-119393958D01*
X182509969Y-119266021D01*
X182620182Y-119289929D01*
X182775315Y-119260739D01*
X182908964Y-119260739D01*
X182990677Y-119179026D01*
X182999145Y-119158582D01*
X183086935Y-119100360D01*
X183365000Y-118822295D01*
X183365000Y-119360198D01*
X183365000Y-119360198D01*
G37*
X183365000Y-119360198D02*
X182835198Y-119890000D01*
X182297296Y-119890000D01*
X182344473Y-119842823D01*
X182405154Y-119754014D01*
X182423139Y-119746564D01*
X182504852Y-119664851D01*
X182504852Y-119528519D01*
X182534042Y-119393958D01*
X182509969Y-119266021D01*
X182620182Y-119289929D01*
X182775315Y-119260739D01*
X182908964Y-119260739D01*
X182990677Y-119179026D01*
X182999145Y-119158582D01*
X183086935Y-119100360D01*
X183365000Y-118822295D01*
X183365000Y-119360198D01*
G36*
X136627000Y-114873000D02*
X137923000Y-114873000D01*
X137923000Y-114853000D01*
X138177000Y-114853000D01*
X138177000Y-114873000D01*
X138197000Y-114873000D01*
X138197000Y-115127000D01*
X138177000Y-115127000D01*
X138177000Y-116126250D01*
X138335750Y-116285000D01*
X138526309Y-116285000D01*
X138759698Y-116188327D01*
X138938327Y-116009699D01*
X138994654Y-115873713D01*
X138996838Y-115885317D01*
X139135910Y-116101441D01*
X139348110Y-116246431D01*
X139600000Y-116297440D01*
X139927758Y-116297440D01*
X138685198Y-117540000D01*
X137635000Y-117540000D01*
X137635000Y-117185750D01*
X137476250Y-117027000D01*
X136627000Y-117027000D01*
X136627000Y-117047000D01*
X136373000Y-117047000D01*
X136373000Y-117027000D01*
X136353000Y-117027000D01*
X136353000Y-116773000D01*
X136373000Y-116773000D01*
X136373000Y-115127000D01*
X136627000Y-115127000D01*
X136627000Y-116773000D01*
X137476250Y-116773000D01*
X137635000Y-116614250D01*
X137635000Y-116285000D01*
X137764250Y-116285000D01*
X137923000Y-116126250D01*
X137923000Y-115127000D01*
X136627000Y-115127000D01*
X136373000Y-115127000D01*
X136353000Y-115127000D01*
X136353000Y-114873000D01*
X136373000Y-114873000D01*
X136373000Y-114853000D01*
X136627000Y-114853000D01*
X136627000Y-114873000D01*
X136627000Y-114873000D01*
G37*
X136627000Y-114873000D02*
X137923000Y-114873000D01*
X137923000Y-114853000D01*
X138177000Y-114853000D01*
X138177000Y-114873000D01*
X138197000Y-114873000D01*
X138197000Y-115127000D01*
X138177000Y-115127000D01*
X138177000Y-116126250D01*
X138335750Y-116285000D01*
X138526309Y-116285000D01*
X138759698Y-116188327D01*
X138938327Y-116009699D01*
X138994654Y-115873713D01*
X138996838Y-115885317D01*
X139135910Y-116101441D01*
X139348110Y-116246431D01*
X139600000Y-116297440D01*
X139927758Y-116297440D01*
X138685198Y-117540000D01*
X137635000Y-117540000D01*
X137635000Y-117185750D01*
X137476250Y-117027000D01*
X136627000Y-117027000D01*
X136627000Y-117047000D01*
X136373000Y-117047000D01*
X136373000Y-117027000D01*
X136353000Y-117027000D01*
X136353000Y-116773000D01*
X136373000Y-116773000D01*
X136373000Y-115127000D01*
X136627000Y-115127000D01*
X136627000Y-116773000D01*
X137476250Y-116773000D01*
X137635000Y-116614250D01*
X137635000Y-116285000D01*
X137764250Y-116285000D01*
X137923000Y-116126250D01*
X137923000Y-115127000D01*
X136627000Y-115127000D01*
X136373000Y-115127000D01*
X136353000Y-115127000D01*
X136353000Y-114873000D01*
X136373000Y-114873000D01*
X136373000Y-114853000D01*
X136627000Y-114853000D01*
X136627000Y-114873000D01*
G36*
X186962599Y-115337401D02*
X186966489Y-115340000D01*
X185562376Y-115340000D01*
X185480327Y-115257808D01*
X185136799Y-115115162D01*
X184764833Y-115114838D01*
X184421057Y-115256883D01*
X184157808Y-115519673D01*
X184015162Y-115863201D01*
X184015095Y-115940000D01*
X183814802Y-115940000D01*
X183537401Y-115662599D01*
X183484277Y-115627103D01*
X183625536Y-115485844D01*
X183728943Y-115443117D01*
X183992192Y-115180327D01*
X184035607Y-115075773D01*
X184041529Y-115069851D01*
X184176614Y-114872148D01*
X184231098Y-114620986D01*
X184183574Y-114368415D01*
X184041529Y-114154233D01*
X183652621Y-113765325D01*
X183543744Y-113690932D01*
X183475843Y-113588548D01*
X183447295Y-113560000D01*
X185185198Y-113560000D01*
X186962599Y-115337401D01*
X186962599Y-115337401D01*
G37*
X186962599Y-115337401D02*
X186966489Y-115340000D01*
X185562376Y-115340000D01*
X185480327Y-115257808D01*
X185136799Y-115115162D01*
X184764833Y-115114838D01*
X184421057Y-115256883D01*
X184157808Y-115519673D01*
X184015162Y-115863201D01*
X184015095Y-115940000D01*
X183814802Y-115940000D01*
X183537401Y-115662599D01*
X183484277Y-115627103D01*
X183625536Y-115485844D01*
X183728943Y-115443117D01*
X183992192Y-115180327D01*
X184035607Y-115075773D01*
X184041529Y-115069851D01*
X184176614Y-114872148D01*
X184231098Y-114620986D01*
X184183574Y-114368415D01*
X184041529Y-114154233D01*
X183652621Y-113765325D01*
X183543744Y-113690932D01*
X183475843Y-113588548D01*
X183447295Y-113560000D01*
X185185198Y-113560000D01*
X186962599Y-115337401D01*
G36*
X141926610Y-104900431D02*
X142178500Y-104951440D01*
X142711500Y-104951440D01*
X142946817Y-104907162D01*
X142974732Y-104889199D01*
X143012852Y-105080839D01*
X143018973Y-105090000D01*
X139052234Y-105090000D01*
X138811799Y-104990162D01*
X138439833Y-104989838D01*
X138096057Y-105131883D01*
X137832808Y-105394673D01*
X137690162Y-105738201D01*
X137689838Y-106110167D01*
X137831883Y-106453943D01*
X138094673Y-106717192D01*
X138438201Y-106859838D01*
X138810167Y-106860162D01*
X139153943Y-106718117D01*
X139262249Y-106610000D01*
X141717498Y-106610000D01*
X141707808Y-106619673D01*
X141573654Y-106942751D01*
X141386799Y-106865162D01*
X141014833Y-106864838D01*
X140671057Y-107006883D01*
X140407808Y-107269673D01*
X140265162Y-107613201D01*
X140265106Y-107677500D01*
X135062500Y-107677500D01*
X134771661Y-107735352D01*
X134525099Y-107900099D01*
X132285198Y-110140000D01*
X130612463Y-110140000D01*
X130580327Y-110107808D01*
X130236799Y-109965162D01*
X129864833Y-109964838D01*
X129521057Y-110106883D01*
X129257808Y-110369673D01*
X129115162Y-110713201D01*
X129114838Y-111085167D01*
X129256883Y-111428943D01*
X129519673Y-111692192D01*
X129863201Y-111834838D01*
X130101060Y-111835045D01*
X130101060Y-112449373D01*
X130080162Y-112499701D01*
X130079838Y-112871667D01*
X130101060Y-112923028D01*
X130101060Y-113677000D01*
X130145338Y-113912317D01*
X130275859Y-114115152D01*
X129914833Y-114114838D01*
X129579245Y-114253500D01*
X126811377Y-114253500D01*
X127119778Y-114047433D01*
X127477670Y-113511810D01*
X127603345Y-112880000D01*
X127477670Y-112248190D01*
X127119778Y-111712567D01*
X126584155Y-111354675D01*
X125952345Y-111229000D01*
X125887655Y-111229000D01*
X125255845Y-111354675D01*
X124720222Y-111712567D01*
X124650000Y-111817662D01*
X124579778Y-111712567D01*
X124044155Y-111354675D01*
X123412345Y-111229000D01*
X123347655Y-111229000D01*
X122715845Y-111354675D01*
X122180222Y-111712567D01*
X122110000Y-111817662D01*
X122039778Y-111712567D01*
X121504155Y-111354675D01*
X120872345Y-111229000D01*
X120807655Y-111229000D01*
X120175845Y-111354675D01*
X119640222Y-111712567D01*
X119570000Y-111817662D01*
X119499778Y-111712567D01*
X118964155Y-111354675D01*
X118332345Y-111229000D01*
X118267655Y-111229000D01*
X117635845Y-111354675D01*
X117100222Y-111712567D01*
X117030000Y-111817662D01*
X116959778Y-111712567D01*
X116424155Y-111354675D01*
X115792345Y-111229000D01*
X115727655Y-111229000D01*
X115095845Y-111354675D01*
X114560222Y-111712567D01*
X114490000Y-111817662D01*
X114419778Y-111712567D01*
X113884155Y-111354675D01*
X113252345Y-111229000D01*
X113187655Y-111229000D01*
X112555845Y-111354675D01*
X112020222Y-111712567D01*
X111950000Y-111817662D01*
X111879778Y-111712567D01*
X111344155Y-111354675D01*
X110712345Y-111229000D01*
X110647655Y-111229000D01*
X110015845Y-111354675D01*
X109480222Y-111712567D01*
X109122330Y-112248190D01*
X108996655Y-112880000D01*
X109122330Y-113511810D01*
X109241393Y-113690000D01*
X108812463Y-113690000D01*
X108780327Y-113657808D01*
X108436799Y-113515162D01*
X108064833Y-113514838D01*
X107721057Y-113656883D01*
X107457808Y-113919673D01*
X107315162Y-114263201D01*
X107315052Y-114390000D01*
X105250005Y-114390000D01*
X105250000Y-114389999D01*
X104948361Y-114450000D01*
X104911325Y-114457367D01*
X104624210Y-114649210D01*
X104624208Y-114649213D01*
X104249210Y-115024210D01*
X104057367Y-115311325D01*
X104057367Y-115311326D01*
X104018766Y-115505382D01*
X103871500Y-115475560D01*
X103338500Y-115475560D01*
X103103183Y-115519838D01*
X102969468Y-115605881D01*
X102853390Y-115526569D01*
X102601500Y-115475560D01*
X102068500Y-115475560D01*
X101833183Y-115519838D01*
X101699468Y-115605881D01*
X101583390Y-115526569D01*
X101331500Y-115475560D01*
X100798500Y-115475560D01*
X100710000Y-115492212D01*
X100710000Y-108650461D01*
X100913201Y-108734838D01*
X101285167Y-108735162D01*
X101628943Y-108593117D01*
X101762293Y-108460000D01*
X126628500Y-108460000D01*
X126919339Y-108402148D01*
X127165901Y-108237401D01*
X130501817Y-104901485D01*
X130748500Y-104951440D01*
X131281500Y-104951440D01*
X131516817Y-104907162D01*
X131650532Y-104821119D01*
X131766610Y-104900431D01*
X132018500Y-104951440D01*
X132551500Y-104951440D01*
X132786817Y-104907162D01*
X132920532Y-104821119D01*
X133036610Y-104900431D01*
X133288500Y-104951440D01*
X133821500Y-104951440D01*
X134056817Y-104907162D01*
X134190532Y-104821119D01*
X134306610Y-104900431D01*
X134558500Y-104951440D01*
X135091500Y-104951440D01*
X135326817Y-104907162D01*
X135460532Y-104821119D01*
X135576610Y-104900431D01*
X135828500Y-104951440D01*
X136361500Y-104951440D01*
X136596817Y-104907162D01*
X136730532Y-104821119D01*
X136846610Y-104900431D01*
X137098500Y-104951440D01*
X137631500Y-104951440D01*
X137866817Y-104907162D01*
X138000532Y-104821119D01*
X138116610Y-104900431D01*
X138368500Y-104951440D01*
X138901500Y-104951440D01*
X139136817Y-104907162D01*
X139270532Y-104821119D01*
X139386610Y-104900431D01*
X139638500Y-104951440D01*
X140171500Y-104951440D01*
X140406817Y-104907162D01*
X140540532Y-104821119D01*
X140656610Y-104900431D01*
X140908500Y-104951440D01*
X141441500Y-104951440D01*
X141676817Y-104907162D01*
X141810532Y-104821119D01*
X141926610Y-104900431D01*
X141926610Y-104900431D01*
G37*
X141926610Y-104900431D02*
X142178500Y-104951440D01*
X142711500Y-104951440D01*
X142946817Y-104907162D01*
X142974732Y-104889199D01*
X143012852Y-105080839D01*
X143018973Y-105090000D01*
X139052234Y-105090000D01*
X138811799Y-104990162D01*
X138439833Y-104989838D01*
X138096057Y-105131883D01*
X137832808Y-105394673D01*
X137690162Y-105738201D01*
X137689838Y-106110167D01*
X137831883Y-106453943D01*
X138094673Y-106717192D01*
X138438201Y-106859838D01*
X138810167Y-106860162D01*
X139153943Y-106718117D01*
X139262249Y-106610000D01*
X141717498Y-106610000D01*
X141707808Y-106619673D01*
X141573654Y-106942751D01*
X141386799Y-106865162D01*
X141014833Y-106864838D01*
X140671057Y-107006883D01*
X140407808Y-107269673D01*
X140265162Y-107613201D01*
X140265106Y-107677500D01*
X135062500Y-107677500D01*
X134771661Y-107735352D01*
X134525099Y-107900099D01*
X132285198Y-110140000D01*
X130612463Y-110140000D01*
X130580327Y-110107808D01*
X130236799Y-109965162D01*
X129864833Y-109964838D01*
X129521057Y-110106883D01*
X129257808Y-110369673D01*
X129115162Y-110713201D01*
X129114838Y-111085167D01*
X129256883Y-111428943D01*
X129519673Y-111692192D01*
X129863201Y-111834838D01*
X130101060Y-111835045D01*
X130101060Y-112449373D01*
X130080162Y-112499701D01*
X130079838Y-112871667D01*
X130101060Y-112923028D01*
X130101060Y-113677000D01*
X130145338Y-113912317D01*
X130275859Y-114115152D01*
X129914833Y-114114838D01*
X129579245Y-114253500D01*
X126811377Y-114253500D01*
X127119778Y-114047433D01*
X127477670Y-113511810D01*
X127603345Y-112880000D01*
X127477670Y-112248190D01*
X127119778Y-111712567D01*
X126584155Y-111354675D01*
X125952345Y-111229000D01*
X125887655Y-111229000D01*
X125255845Y-111354675D01*
X124720222Y-111712567D01*
X124650000Y-111817662D01*
X124579778Y-111712567D01*
X124044155Y-111354675D01*
X123412345Y-111229000D01*
X123347655Y-111229000D01*
X122715845Y-111354675D01*
X122180222Y-111712567D01*
X122110000Y-111817662D01*
X122039778Y-111712567D01*
X121504155Y-111354675D01*
X120872345Y-111229000D01*
X120807655Y-111229000D01*
X120175845Y-111354675D01*
X119640222Y-111712567D01*
X119570000Y-111817662D01*
X119499778Y-111712567D01*
X118964155Y-111354675D01*
X118332345Y-111229000D01*
X118267655Y-111229000D01*
X117635845Y-111354675D01*
X117100222Y-111712567D01*
X117030000Y-111817662D01*
X116959778Y-111712567D01*
X116424155Y-111354675D01*
X115792345Y-111229000D01*
X115727655Y-111229000D01*
X115095845Y-111354675D01*
X114560222Y-111712567D01*
X114490000Y-111817662D01*
X114419778Y-111712567D01*
X113884155Y-111354675D01*
X113252345Y-111229000D01*
X113187655Y-111229000D01*
X112555845Y-111354675D01*
X112020222Y-111712567D01*
X111950000Y-111817662D01*
X111879778Y-111712567D01*
X111344155Y-111354675D01*
X110712345Y-111229000D01*
X110647655Y-111229000D01*
X110015845Y-111354675D01*
X109480222Y-111712567D01*
X109122330Y-112248190D01*
X108996655Y-112880000D01*
X109122330Y-113511810D01*
X109241393Y-113690000D01*
X108812463Y-113690000D01*
X108780327Y-113657808D01*
X108436799Y-113515162D01*
X108064833Y-113514838D01*
X107721057Y-113656883D01*
X107457808Y-113919673D01*
X107315162Y-114263201D01*
X107315052Y-114390000D01*
X105250005Y-114390000D01*
X105250000Y-114389999D01*
X104948361Y-114450000D01*
X104911325Y-114457367D01*
X104624210Y-114649210D01*
X104624208Y-114649213D01*
X104249210Y-115024210D01*
X104057367Y-115311325D01*
X104057367Y-115311326D01*
X104018766Y-115505382D01*
X103871500Y-115475560D01*
X103338500Y-115475560D01*
X103103183Y-115519838D01*
X102969468Y-115605881D01*
X102853390Y-115526569D01*
X102601500Y-115475560D01*
X102068500Y-115475560D01*
X101833183Y-115519838D01*
X101699468Y-115605881D01*
X101583390Y-115526569D01*
X101331500Y-115475560D01*
X100798500Y-115475560D01*
X100710000Y-115492212D01*
X100710000Y-108650461D01*
X100913201Y-108734838D01*
X101285167Y-108735162D01*
X101628943Y-108593117D01*
X101762293Y-108460000D01*
X126628500Y-108460000D01*
X126919339Y-108402148D01*
X127165901Y-108237401D01*
X130501817Y-104901485D01*
X130748500Y-104951440D01*
X131281500Y-104951440D01*
X131516817Y-104907162D01*
X131650532Y-104821119D01*
X131766610Y-104900431D01*
X132018500Y-104951440D01*
X132551500Y-104951440D01*
X132786817Y-104907162D01*
X132920532Y-104821119D01*
X133036610Y-104900431D01*
X133288500Y-104951440D01*
X133821500Y-104951440D01*
X134056817Y-104907162D01*
X134190532Y-104821119D01*
X134306610Y-104900431D01*
X134558500Y-104951440D01*
X135091500Y-104951440D01*
X135326817Y-104907162D01*
X135460532Y-104821119D01*
X135576610Y-104900431D01*
X135828500Y-104951440D01*
X136361500Y-104951440D01*
X136596817Y-104907162D01*
X136730532Y-104821119D01*
X136846610Y-104900431D01*
X137098500Y-104951440D01*
X137631500Y-104951440D01*
X137866817Y-104907162D01*
X138000532Y-104821119D01*
X138116610Y-104900431D01*
X138368500Y-104951440D01*
X138901500Y-104951440D01*
X139136817Y-104907162D01*
X139270532Y-104821119D01*
X139386610Y-104900431D01*
X139638500Y-104951440D01*
X140171500Y-104951440D01*
X140406817Y-104907162D01*
X140540532Y-104821119D01*
X140656610Y-104900431D01*
X140908500Y-104951440D01*
X141441500Y-104951440D01*
X141676817Y-104907162D01*
X141810532Y-104821119D01*
X141926610Y-104900431D01*
G36*
X173526337Y-108615935D02*
X173438548Y-108674157D01*
X173049640Y-109063065D01*
X172975249Y-109171940D01*
X172872863Y-109239842D01*
X172483955Y-109628750D01*
X172409565Y-109737624D01*
X172307177Y-109805527D01*
X171918269Y-110194435D01*
X171843876Y-110303312D01*
X171741492Y-110371213D01*
X171352584Y-110760121D01*
X171278194Y-110868995D01*
X171175806Y-110936898D01*
X170786898Y-111325806D01*
X170712505Y-111434683D01*
X170610121Y-111502584D01*
X170221213Y-111891492D01*
X170146823Y-112000366D01*
X170044435Y-112068269D01*
X169655527Y-112457177D01*
X169581134Y-112566054D01*
X169478750Y-112633955D01*
X169089842Y-113022863D01*
X169015451Y-113131738D01*
X168913065Y-113199640D01*
X168524157Y-113588548D01*
X168463477Y-113677355D01*
X168445490Y-113684806D01*
X168363777Y-113766519D01*
X168363777Y-113902857D01*
X168334588Y-114037413D01*
X168382112Y-114289984D01*
X168524157Y-114504166D01*
X168901287Y-114881296D01*
X168905828Y-114892287D01*
X168184172Y-114170631D01*
X167959665Y-114170631D01*
X167877952Y-114252344D01*
X167844304Y-114333576D01*
X167790839Y-114297852D01*
X167500000Y-114240000D01*
X164131581Y-114240000D01*
X164419778Y-114047433D01*
X164777670Y-113511810D01*
X164903345Y-112880000D01*
X164777670Y-112248190D01*
X164419778Y-111712567D01*
X163884155Y-111354675D01*
X163252345Y-111229000D01*
X163187655Y-111229000D01*
X162555845Y-111354675D01*
X162020222Y-111712567D01*
X161950000Y-111817662D01*
X161879778Y-111712567D01*
X161344155Y-111354675D01*
X160712345Y-111229000D01*
X160647655Y-111229000D01*
X160015845Y-111354675D01*
X159480222Y-111712567D01*
X159410000Y-111817662D01*
X159339778Y-111712567D01*
X158804155Y-111354675D01*
X158172345Y-111229000D01*
X158107655Y-111229000D01*
X157475845Y-111354675D01*
X156940222Y-111712567D01*
X156870000Y-111817662D01*
X156799778Y-111712567D01*
X156316119Y-111389396D01*
X156302148Y-111319160D01*
X156137401Y-111072599D01*
X155677401Y-110612599D01*
X155430839Y-110447852D01*
X155140000Y-110390000D01*
X153782415Y-110390000D01*
X153842192Y-110330327D01*
X153984838Y-109986799D01*
X153985162Y-109614833D01*
X153843117Y-109271057D01*
X153769688Y-109197500D01*
X171687500Y-109197500D01*
X171978339Y-109139648D01*
X172224901Y-108974901D01*
X172589802Y-108610000D01*
X173528796Y-108610000D01*
X173526337Y-108615935D01*
X173526337Y-108615935D01*
G37*
X173526337Y-108615935D02*
X173438548Y-108674157D01*
X173049640Y-109063065D01*
X172975249Y-109171940D01*
X172872863Y-109239842D01*
X172483955Y-109628750D01*
X172409565Y-109737624D01*
X172307177Y-109805527D01*
X171918269Y-110194435D01*
X171843876Y-110303312D01*
X171741492Y-110371213D01*
X171352584Y-110760121D01*
X171278194Y-110868995D01*
X171175806Y-110936898D01*
X170786898Y-111325806D01*
X170712505Y-111434683D01*
X170610121Y-111502584D01*
X170221213Y-111891492D01*
X170146823Y-112000366D01*
X170044435Y-112068269D01*
X169655527Y-112457177D01*
X169581134Y-112566054D01*
X169478750Y-112633955D01*
X169089842Y-113022863D01*
X169015451Y-113131738D01*
X168913065Y-113199640D01*
X168524157Y-113588548D01*
X168463477Y-113677355D01*
X168445490Y-113684806D01*
X168363777Y-113766519D01*
X168363777Y-113902857D01*
X168334588Y-114037413D01*
X168382112Y-114289984D01*
X168524157Y-114504166D01*
X168901287Y-114881296D01*
X168905828Y-114892287D01*
X168184172Y-114170631D01*
X167959665Y-114170631D01*
X167877952Y-114252344D01*
X167844304Y-114333576D01*
X167790839Y-114297852D01*
X167500000Y-114240000D01*
X164131581Y-114240000D01*
X164419778Y-114047433D01*
X164777670Y-113511810D01*
X164903345Y-112880000D01*
X164777670Y-112248190D01*
X164419778Y-111712567D01*
X163884155Y-111354675D01*
X163252345Y-111229000D01*
X163187655Y-111229000D01*
X162555845Y-111354675D01*
X162020222Y-111712567D01*
X161950000Y-111817662D01*
X161879778Y-111712567D01*
X161344155Y-111354675D01*
X160712345Y-111229000D01*
X160647655Y-111229000D01*
X160015845Y-111354675D01*
X159480222Y-111712567D01*
X159410000Y-111817662D01*
X159339778Y-111712567D01*
X158804155Y-111354675D01*
X158172345Y-111229000D01*
X158107655Y-111229000D01*
X157475845Y-111354675D01*
X156940222Y-111712567D01*
X156870000Y-111817662D01*
X156799778Y-111712567D01*
X156316119Y-111389396D01*
X156302148Y-111319160D01*
X156137401Y-111072599D01*
X155677401Y-110612599D01*
X155430839Y-110447852D01*
X155140000Y-110390000D01*
X153782415Y-110390000D01*
X153842192Y-110330327D01*
X153984838Y-109986799D01*
X153985162Y-109614833D01*
X153843117Y-109271057D01*
X153769688Y-109197500D01*
X171687500Y-109197500D01*
X171978339Y-109139648D01*
X172224901Y-108974901D01*
X172589802Y-108610000D01*
X173528796Y-108610000D01*
X173526337Y-108615935D01*
G36*
X212492000Y-112559500D02*
X212512000Y-112559500D01*
X212512000Y-112813500D01*
X212492000Y-112813500D01*
X212492000Y-112833500D01*
X212238000Y-112833500D01*
X212238000Y-112813500D01*
X212218000Y-112813500D01*
X212218000Y-112559500D01*
X212238000Y-112559500D01*
X212238000Y-112539500D01*
X212492000Y-112539500D01*
X212492000Y-112559500D01*
X212492000Y-112559500D01*
G37*
X212492000Y-112559500D02*
X212512000Y-112559500D01*
X212512000Y-112813500D01*
X212492000Y-112813500D01*
X212492000Y-112833500D01*
X212238000Y-112833500D01*
X212238000Y-112813500D01*
X212218000Y-112813500D01*
X212218000Y-112559500D01*
X212238000Y-112559500D01*
X212238000Y-112539500D01*
X212492000Y-112539500D01*
X212492000Y-112559500D01*
G36*
X137492000Y-112559500D02*
X137512000Y-112559500D01*
X137512000Y-112813500D01*
X137492000Y-112813500D01*
X137492000Y-112833500D01*
X137238000Y-112833500D01*
X137238000Y-112813500D01*
X137218000Y-112813500D01*
X137218000Y-112559500D01*
X137238000Y-112559500D01*
X137238000Y-112539500D01*
X137492000Y-112539500D01*
X137492000Y-112559500D01*
X137492000Y-112559500D01*
G37*
X137492000Y-112559500D02*
X137512000Y-112559500D01*
X137512000Y-112813500D01*
X137492000Y-112813500D01*
X137492000Y-112833500D01*
X137238000Y-112833500D01*
X137238000Y-112813500D01*
X137218000Y-112813500D01*
X137218000Y-112559500D01*
X137238000Y-112559500D01*
X137238000Y-112539500D01*
X137492000Y-112539500D01*
X137492000Y-112559500D01*
G36*
X175754810Y-110068351D02*
X175979317Y-110068351D01*
X175996932Y-110050736D01*
X176019489Y-110084749D01*
X176408397Y-110473657D01*
X176497204Y-110534337D01*
X176504655Y-110552324D01*
X176586368Y-110634037D01*
X176722706Y-110634037D01*
X176857262Y-110663226D01*
X176985198Y-110639153D01*
X176961290Y-110749367D01*
X176990480Y-110904500D01*
X176990480Y-111038149D01*
X177072193Y-111119862D01*
X177092637Y-111128330D01*
X177150859Y-111216120D01*
X177224739Y-111290000D01*
X177167028Y-111290000D01*
X176986799Y-111215162D01*
X176614833Y-111214838D01*
X176460251Y-111278710D01*
X176186799Y-111165162D01*
X175814833Y-111164838D01*
X175471057Y-111306883D01*
X175207808Y-111569673D01*
X175065162Y-111913201D01*
X175065121Y-111960077D01*
X174885198Y-112140000D01*
X173925260Y-112140000D01*
X174283455Y-111781805D01*
X174357845Y-111672931D01*
X174460233Y-111605028D01*
X174849141Y-111216120D01*
X174923532Y-111107245D01*
X175025918Y-111039343D01*
X175414826Y-110650435D01*
X175475507Y-110561626D01*
X175493492Y-110554176D01*
X175575205Y-110472463D01*
X175575205Y-110336131D01*
X175604395Y-110201570D01*
X175556871Y-109948999D01*
X175414826Y-109734817D01*
X175037696Y-109357687D01*
X175033155Y-109346696D01*
X175754810Y-110068351D01*
X175754810Y-110068351D01*
G37*
X175754810Y-110068351D02*
X175979317Y-110068351D01*
X175996932Y-110050736D01*
X176019489Y-110084749D01*
X176408397Y-110473657D01*
X176497204Y-110534337D01*
X176504655Y-110552324D01*
X176586368Y-110634037D01*
X176722706Y-110634037D01*
X176857262Y-110663226D01*
X176985198Y-110639153D01*
X176961290Y-110749367D01*
X176990480Y-110904500D01*
X176990480Y-111038149D01*
X177072193Y-111119862D01*
X177092637Y-111128330D01*
X177150859Y-111216120D01*
X177224739Y-111290000D01*
X177167028Y-111290000D01*
X176986799Y-111215162D01*
X176614833Y-111214838D01*
X176460251Y-111278710D01*
X176186799Y-111165162D01*
X175814833Y-111164838D01*
X175471057Y-111306883D01*
X175207808Y-111569673D01*
X175065162Y-111913201D01*
X175065121Y-111960077D01*
X174885198Y-112140000D01*
X173925260Y-112140000D01*
X174283455Y-111781805D01*
X174357845Y-111672931D01*
X174460233Y-111605028D01*
X174849141Y-111216120D01*
X174923532Y-111107245D01*
X175025918Y-111039343D01*
X175414826Y-110650435D01*
X175475507Y-110561626D01*
X175493492Y-110554176D01*
X175575205Y-110472463D01*
X175575205Y-110336131D01*
X175604395Y-110201570D01*
X175556871Y-109948999D01*
X175414826Y-109734817D01*
X175037696Y-109357687D01*
X175033155Y-109346696D01*
X175754810Y-110068351D01*
G36*
X180456317Y-108567103D02*
X180456315Y-108567106D01*
X179524210Y-109499210D01*
X179469053Y-109581758D01*
X179127137Y-109239842D01*
X179038329Y-109179162D01*
X179030879Y-109161176D01*
X178949166Y-109079463D01*
X178812833Y-109079463D01*
X178678272Y-109050273D01*
X178550336Y-109074346D01*
X178574244Y-108964132D01*
X178545054Y-108808999D01*
X178545054Y-108675351D01*
X178463341Y-108593638D01*
X178442898Y-108585170D01*
X178393045Y-108510000D01*
X180541778Y-108510000D01*
X180456317Y-108567103D01*
X180456317Y-108567103D01*
G37*
X180456317Y-108567103D02*
X180456315Y-108567106D01*
X179524210Y-109499210D01*
X179469053Y-109581758D01*
X179127137Y-109239842D01*
X179038329Y-109179162D01*
X179030879Y-109161176D01*
X178949166Y-109079463D01*
X178812833Y-109079463D01*
X178678272Y-109050273D01*
X178550336Y-109074346D01*
X178574244Y-108964132D01*
X178545054Y-108808999D01*
X178545054Y-108675351D01*
X178463341Y-108593638D01*
X178442898Y-108585170D01*
X178393045Y-108510000D01*
X180541778Y-108510000D01*
X180456317Y-108567103D01*
G36*
X172352560Y-100750000D02*
X172352560Y-102050000D01*
X172396838Y-102285317D01*
X172535910Y-102501441D01*
X172748110Y-102646431D01*
X173000000Y-102697440D01*
X174550000Y-102697440D01*
X174785317Y-102653162D01*
X175001441Y-102514090D01*
X175146431Y-102301890D01*
X175197440Y-102050000D01*
X175197440Y-100750000D01*
X175189913Y-100710000D01*
X197137077Y-100710000D01*
X197206883Y-100878943D01*
X197469673Y-101142192D01*
X197799451Y-101279129D01*
X197390222Y-101552567D01*
X197320000Y-101657662D01*
X197249778Y-101552567D01*
X196714155Y-101194675D01*
X196082345Y-101069000D01*
X196017655Y-101069000D01*
X195385845Y-101194675D01*
X194850222Y-101552567D01*
X194780000Y-101657662D01*
X194709778Y-101552567D01*
X194174155Y-101194675D01*
X193542345Y-101069000D01*
X193477655Y-101069000D01*
X192845845Y-101194675D01*
X192310222Y-101552567D01*
X192240000Y-101657662D01*
X192169778Y-101552567D01*
X191634155Y-101194675D01*
X191002345Y-101069000D01*
X190937655Y-101069000D01*
X190305845Y-101194675D01*
X189770222Y-101552567D01*
X189700000Y-101657662D01*
X189629778Y-101552567D01*
X189094155Y-101194675D01*
X188462345Y-101069000D01*
X188397655Y-101069000D01*
X187765845Y-101194675D01*
X187230222Y-101552567D01*
X186872330Y-102088190D01*
X186746655Y-102720000D01*
X186872330Y-103351810D01*
X187230222Y-103887433D01*
X187765845Y-104245325D01*
X188397655Y-104371000D01*
X188462345Y-104371000D01*
X189032739Y-104257541D01*
X189237563Y-104462365D01*
X189059161Y-104497852D01*
X188812599Y-104662599D01*
X187785198Y-105690000D01*
X185447440Y-105690000D01*
X185447440Y-104150000D01*
X185403162Y-103914683D01*
X185264090Y-103698559D01*
X185051890Y-103553569D01*
X184937699Y-103530445D01*
X185145183Y-103341358D01*
X185391486Y-102816892D01*
X185270819Y-102587000D01*
X184077000Y-102587000D01*
X184077000Y-102607000D01*
X183823000Y-102607000D01*
X183823000Y-102587000D01*
X183803000Y-102587000D01*
X183803000Y-102333000D01*
X183823000Y-102333000D01*
X183823000Y-101139845D01*
X184077000Y-101139845D01*
X184077000Y-102333000D01*
X185270819Y-102333000D01*
X185391486Y-102103108D01*
X185145183Y-101578642D01*
X184716924Y-101188355D01*
X184306890Y-101018524D01*
X184077000Y-101139845D01*
X183823000Y-101139845D01*
X183593110Y-101018524D01*
X183183076Y-101188355D01*
X182754817Y-101578642D01*
X182687702Y-101721553D01*
X182460054Y-101380853D01*
X181978285Y-101058946D01*
X181410000Y-100945907D01*
X180841715Y-101058946D01*
X180359946Y-101380853D01*
X180140000Y-101710026D01*
X179920054Y-101380853D01*
X179438285Y-101058946D01*
X178870000Y-100945907D01*
X178301715Y-101058946D01*
X177819946Y-101380853D01*
X177498039Y-101862622D01*
X177385000Y-102430907D01*
X177385000Y-102489093D01*
X177498039Y-103057378D01*
X177819946Y-103539147D01*
X178105578Y-103730000D01*
X177819946Y-103920853D01*
X177606699Y-104240000D01*
X174675000Y-104240000D01*
X174384160Y-104297852D01*
X174137599Y-104462599D01*
X173997638Y-104602560D01*
X173000000Y-104602560D01*
X172764683Y-104646838D01*
X172548559Y-104785910D01*
X172403569Y-104998110D01*
X172374836Y-105140000D01*
X167226742Y-105140000D01*
X167203162Y-105014683D01*
X167064090Y-104798559D01*
X166851890Y-104653569D01*
X166600000Y-104602560D01*
X165050000Y-104602560D01*
X164814683Y-104646838D01*
X164713836Y-104711731D01*
X164701890Y-104703569D01*
X164450000Y-104652560D01*
X163750000Y-104652560D01*
X163514683Y-104696838D01*
X163298559Y-104835910D01*
X163153569Y-105048110D01*
X163146809Y-105081490D01*
X163088327Y-104940301D01*
X162909698Y-104761673D01*
X162676309Y-104665000D01*
X162485750Y-104665000D01*
X162327000Y-104823750D01*
X162327000Y-105823000D01*
X162347000Y-105823000D01*
X162347000Y-106077000D01*
X162327000Y-106077000D01*
X162327000Y-107076250D01*
X162485750Y-107235000D01*
X162676309Y-107235000D01*
X162909698Y-107138327D01*
X163088327Y-106959699D01*
X163144654Y-106823713D01*
X163146838Y-106835317D01*
X163285910Y-107051441D01*
X163498110Y-107196431D01*
X163750000Y-107247440D01*
X164450000Y-107247440D01*
X164685317Y-107203162D01*
X164786164Y-107138269D01*
X164798110Y-107146431D01*
X165050000Y-107197440D01*
X166600000Y-107197440D01*
X166835317Y-107153162D01*
X167051441Y-107014090D01*
X167196431Y-106801890D01*
X167225164Y-106660000D01*
X170317498Y-106660000D01*
X170307808Y-106669673D01*
X170165162Y-107013201D01*
X170164838Y-107385167D01*
X170285627Y-107677500D01*
X161635107Y-107677500D01*
X161635162Y-107614833D01*
X161493117Y-107271057D01*
X161230327Y-107007808D01*
X160886799Y-106865162D01*
X160514833Y-106864838D01*
X160171057Y-107006883D01*
X160137882Y-107040000D01*
X153985097Y-107040000D01*
X153985162Y-106964833D01*
X153843117Y-106621057D01*
X153832079Y-106610000D01*
X159487537Y-106610000D01*
X159519673Y-106642192D01*
X159863201Y-106784838D01*
X160235167Y-106785162D01*
X160578943Y-106643117D01*
X160842192Y-106380327D01*
X160902225Y-106235750D01*
X161215000Y-106235750D01*
X161215000Y-106726310D01*
X161311673Y-106959699D01*
X161490302Y-107138327D01*
X161723691Y-107235000D01*
X161914250Y-107235000D01*
X162073000Y-107076250D01*
X162073000Y-106077000D01*
X161373750Y-106077000D01*
X161215000Y-106235750D01*
X160902225Y-106235750D01*
X160984838Y-106036799D01*
X160985162Y-105664833D01*
X160843117Y-105321057D01*
X160696007Y-105173690D01*
X161215000Y-105173690D01*
X161215000Y-105664250D01*
X161373750Y-105823000D01*
X162073000Y-105823000D01*
X162073000Y-104823750D01*
X161914250Y-104665000D01*
X161723691Y-104665000D01*
X161490302Y-104761673D01*
X161311673Y-104940301D01*
X161215000Y-105173690D01*
X160696007Y-105173690D01*
X160580327Y-105057808D01*
X160236799Y-104915162D01*
X159864833Y-104914838D01*
X159521057Y-105056883D01*
X159487882Y-105090000D01*
X154304802Y-105090000D01*
X155114033Y-104280769D01*
X155567655Y-104371000D01*
X155632345Y-104371000D01*
X156264155Y-104245325D01*
X156799778Y-103887433D01*
X156870000Y-103782338D01*
X156940222Y-103887433D01*
X157475845Y-104245325D01*
X158107655Y-104371000D01*
X158172345Y-104371000D01*
X158804155Y-104245325D01*
X159339778Y-103887433D01*
X159410000Y-103782338D01*
X159480222Y-103887433D01*
X160015845Y-104245325D01*
X160647655Y-104371000D01*
X160712345Y-104371000D01*
X161344155Y-104245325D01*
X161879778Y-103887433D01*
X161950000Y-103782338D01*
X162020222Y-103887433D01*
X162555845Y-104245325D01*
X163187655Y-104371000D01*
X163252345Y-104371000D01*
X163884155Y-104245325D01*
X164419778Y-103887433D01*
X164777670Y-103351810D01*
X164903345Y-102720000D01*
X164892514Y-102665548D01*
X165050000Y-102697440D01*
X166600000Y-102697440D01*
X166835317Y-102653162D01*
X167051441Y-102514090D01*
X167196431Y-102301890D01*
X167247440Y-102050000D01*
X167247440Y-100750000D01*
X167239913Y-100710000D01*
X172360660Y-100710000D01*
X172352560Y-100750000D01*
X172352560Y-100750000D01*
G37*
X172352560Y-100750000D02*
X172352560Y-102050000D01*
X172396838Y-102285317D01*
X172535910Y-102501441D01*
X172748110Y-102646431D01*
X173000000Y-102697440D01*
X174550000Y-102697440D01*
X174785317Y-102653162D01*
X175001441Y-102514090D01*
X175146431Y-102301890D01*
X175197440Y-102050000D01*
X175197440Y-100750000D01*
X175189913Y-100710000D01*
X197137077Y-100710000D01*
X197206883Y-100878943D01*
X197469673Y-101142192D01*
X197799451Y-101279129D01*
X197390222Y-101552567D01*
X197320000Y-101657662D01*
X197249778Y-101552567D01*
X196714155Y-101194675D01*
X196082345Y-101069000D01*
X196017655Y-101069000D01*
X195385845Y-101194675D01*
X194850222Y-101552567D01*
X194780000Y-101657662D01*
X194709778Y-101552567D01*
X194174155Y-101194675D01*
X193542345Y-101069000D01*
X193477655Y-101069000D01*
X192845845Y-101194675D01*
X192310222Y-101552567D01*
X192240000Y-101657662D01*
X192169778Y-101552567D01*
X191634155Y-101194675D01*
X191002345Y-101069000D01*
X190937655Y-101069000D01*
X190305845Y-101194675D01*
X189770222Y-101552567D01*
X189700000Y-101657662D01*
X189629778Y-101552567D01*
X189094155Y-101194675D01*
X188462345Y-101069000D01*
X188397655Y-101069000D01*
X187765845Y-101194675D01*
X187230222Y-101552567D01*
X186872330Y-102088190D01*
X186746655Y-102720000D01*
X186872330Y-103351810D01*
X187230222Y-103887433D01*
X187765845Y-104245325D01*
X188397655Y-104371000D01*
X188462345Y-104371000D01*
X189032739Y-104257541D01*
X189237563Y-104462365D01*
X189059161Y-104497852D01*
X188812599Y-104662599D01*
X187785198Y-105690000D01*
X185447440Y-105690000D01*
X185447440Y-104150000D01*
X185403162Y-103914683D01*
X185264090Y-103698559D01*
X185051890Y-103553569D01*
X184937699Y-103530445D01*
X185145183Y-103341358D01*
X185391486Y-102816892D01*
X185270819Y-102587000D01*
X184077000Y-102587000D01*
X184077000Y-102607000D01*
X183823000Y-102607000D01*
X183823000Y-102587000D01*
X183803000Y-102587000D01*
X183803000Y-102333000D01*
X183823000Y-102333000D01*
X183823000Y-101139845D01*
X184077000Y-101139845D01*
X184077000Y-102333000D01*
X185270819Y-102333000D01*
X185391486Y-102103108D01*
X185145183Y-101578642D01*
X184716924Y-101188355D01*
X184306890Y-101018524D01*
X184077000Y-101139845D01*
X183823000Y-101139845D01*
X183593110Y-101018524D01*
X183183076Y-101188355D01*
X182754817Y-101578642D01*
X182687702Y-101721553D01*
X182460054Y-101380853D01*
X181978285Y-101058946D01*
X181410000Y-100945907D01*
X180841715Y-101058946D01*
X180359946Y-101380853D01*
X180140000Y-101710026D01*
X179920054Y-101380853D01*
X179438285Y-101058946D01*
X178870000Y-100945907D01*
X178301715Y-101058946D01*
X177819946Y-101380853D01*
X177498039Y-101862622D01*
X177385000Y-102430907D01*
X177385000Y-102489093D01*
X177498039Y-103057378D01*
X177819946Y-103539147D01*
X178105578Y-103730000D01*
X177819946Y-103920853D01*
X177606699Y-104240000D01*
X174675000Y-104240000D01*
X174384160Y-104297852D01*
X174137599Y-104462599D01*
X173997638Y-104602560D01*
X173000000Y-104602560D01*
X172764683Y-104646838D01*
X172548559Y-104785910D01*
X172403569Y-104998110D01*
X172374836Y-105140000D01*
X167226742Y-105140000D01*
X167203162Y-105014683D01*
X167064090Y-104798559D01*
X166851890Y-104653569D01*
X166600000Y-104602560D01*
X165050000Y-104602560D01*
X164814683Y-104646838D01*
X164713836Y-104711731D01*
X164701890Y-104703569D01*
X164450000Y-104652560D01*
X163750000Y-104652560D01*
X163514683Y-104696838D01*
X163298559Y-104835910D01*
X163153569Y-105048110D01*
X163146809Y-105081490D01*
X163088327Y-104940301D01*
X162909698Y-104761673D01*
X162676309Y-104665000D01*
X162485750Y-104665000D01*
X162327000Y-104823750D01*
X162327000Y-105823000D01*
X162347000Y-105823000D01*
X162347000Y-106077000D01*
X162327000Y-106077000D01*
X162327000Y-107076250D01*
X162485750Y-107235000D01*
X162676309Y-107235000D01*
X162909698Y-107138327D01*
X163088327Y-106959699D01*
X163144654Y-106823713D01*
X163146838Y-106835317D01*
X163285910Y-107051441D01*
X163498110Y-107196431D01*
X163750000Y-107247440D01*
X164450000Y-107247440D01*
X164685317Y-107203162D01*
X164786164Y-107138269D01*
X164798110Y-107146431D01*
X165050000Y-107197440D01*
X166600000Y-107197440D01*
X166835317Y-107153162D01*
X167051441Y-107014090D01*
X167196431Y-106801890D01*
X167225164Y-106660000D01*
X170317498Y-106660000D01*
X170307808Y-106669673D01*
X170165162Y-107013201D01*
X170164838Y-107385167D01*
X170285627Y-107677500D01*
X161635107Y-107677500D01*
X161635162Y-107614833D01*
X161493117Y-107271057D01*
X161230327Y-107007808D01*
X160886799Y-106865162D01*
X160514833Y-106864838D01*
X160171057Y-107006883D01*
X160137882Y-107040000D01*
X153985097Y-107040000D01*
X153985162Y-106964833D01*
X153843117Y-106621057D01*
X153832079Y-106610000D01*
X159487537Y-106610000D01*
X159519673Y-106642192D01*
X159863201Y-106784838D01*
X160235167Y-106785162D01*
X160578943Y-106643117D01*
X160842192Y-106380327D01*
X160902225Y-106235750D01*
X161215000Y-106235750D01*
X161215000Y-106726310D01*
X161311673Y-106959699D01*
X161490302Y-107138327D01*
X161723691Y-107235000D01*
X161914250Y-107235000D01*
X162073000Y-107076250D01*
X162073000Y-106077000D01*
X161373750Y-106077000D01*
X161215000Y-106235750D01*
X160902225Y-106235750D01*
X160984838Y-106036799D01*
X160985162Y-105664833D01*
X160843117Y-105321057D01*
X160696007Y-105173690D01*
X161215000Y-105173690D01*
X161215000Y-105664250D01*
X161373750Y-105823000D01*
X162073000Y-105823000D01*
X162073000Y-104823750D01*
X161914250Y-104665000D01*
X161723691Y-104665000D01*
X161490302Y-104761673D01*
X161311673Y-104940301D01*
X161215000Y-105173690D01*
X160696007Y-105173690D01*
X160580327Y-105057808D01*
X160236799Y-104915162D01*
X159864833Y-104914838D01*
X159521057Y-105056883D01*
X159487882Y-105090000D01*
X154304802Y-105090000D01*
X155114033Y-104280769D01*
X155567655Y-104371000D01*
X155632345Y-104371000D01*
X156264155Y-104245325D01*
X156799778Y-103887433D01*
X156870000Y-103782338D01*
X156940222Y-103887433D01*
X157475845Y-104245325D01*
X158107655Y-104371000D01*
X158172345Y-104371000D01*
X158804155Y-104245325D01*
X159339778Y-103887433D01*
X159410000Y-103782338D01*
X159480222Y-103887433D01*
X160015845Y-104245325D01*
X160647655Y-104371000D01*
X160712345Y-104371000D01*
X161344155Y-104245325D01*
X161879778Y-103887433D01*
X161950000Y-103782338D01*
X162020222Y-103887433D01*
X162555845Y-104245325D01*
X163187655Y-104371000D01*
X163252345Y-104371000D01*
X163884155Y-104245325D01*
X164419778Y-103887433D01*
X164777670Y-103351810D01*
X164903345Y-102720000D01*
X164892514Y-102665548D01*
X165050000Y-102697440D01*
X166600000Y-102697440D01*
X166835317Y-102653162D01*
X167051441Y-102514090D01*
X167196431Y-102301890D01*
X167247440Y-102050000D01*
X167247440Y-100750000D01*
X167239913Y-100710000D01*
X172360660Y-100710000D01*
X172352560Y-100750000D01*
M02*
